<?xml version="1.0" encoding="utf-8"?>
<!-- Generator: Adobe Illustrator 21.1.0, SVG Export Plug-In . SVG Version: 6.00 Build 0)  -->
<svg version="1.1" id="Layer_1" xmlns="http://www.w3.org/2000/svg" xmlns:xlink="http://www.w3.org/1999/xlink" x="0px" y="0px"
	 viewBox="0 0 100 100" enable-background="new 0 0 100 100" xml:space="preserve">
<circle fill="#BC1EC4" cx="50" cy="50" r="50"/>
<g>
	<g>
		<polygon fill="#DFBCB9" points="63.5,45.8 63.5,68.9 48,60.9 48,37.8 		"/>
		<polygon fill="#7A90B8" points="63.5,45.8 48,37.8 55.8,38.7 71.2,46.7 		"/>
		<polygon fill="#96BD94" points="63.5,68.9 63.5,45.8 71.2,46.7 71.2,64.9 		"/>
	</g>
	<g>
		<polygon fill="#333D5E" points="48,12.5 48,46.1 32,37.8 		"/>
		<polygon fill="#7A90B8" points="48,12.5 64,37.8 48,46.1 		"/>
		<polygon fill="#FFF2C0" points="48,46.1 48,77 32,68.6 32,37.8 		"/>
		<polygon fill="#96BD94" points="64,37.8 64,68.6 48,77 48,46.1 		"/>
	</g>
	<g>
		<polygon fill="#333D5E" points="71.2,57.9 63.5,66.9 48,58.8 55.7,49.9 		"/>
		<polygon fill="#7A90B8" points="71.2,57.9 55.7,49.9 63.5,50.8 79,58.8 		"/>
		<polygon fill="#FFF2C0" points="48,58.8 63.5,66.9 63.5,85 48,77 		"/>
		<polygon fill="#96BD94" points="63.5,66.9 71.2,57.9 79,58.8 79,77 63.5,85 		"/>
	</g>
	<polygon fill="#BA541D" points="74.9,64.8 74.9,67.3 73.1,68.3 73.1,76.2 70.6,77.6 70.6,69.6 68.7,70.6 68.7,68.1 70.6,67.1 
		70.6,65.3 73.1,63.9 73.1,65.8 	"/>
	<g>
		<polygon fill="#333D5E" points="40.3,62.9 24.8,54.8 32.5,45.8 48,53.9 		"/>
		<polygon fill="#FFF2C0" points="24.8,54.8 40.3,62.9 40.3,81 24.8,72.9 		"/>
		<polygon fill="#96BD94" points="40.3,62.9 48,53.9 48,77 40.3,81 		"/>
	</g>
	<polygon points="50.7,4.7 50.7,6.9 49.2,7.7 49.2,14.5 47.1,15.6 47.1,8.8 45.5,9.7 45.5,7.6 47.1,6.7 47.1,5.1 49.2,4 49.2,5.6 	
		"/>
	<polygon fill="#0099CC" points="27.6,62.1 29.3,61.8 30.7,63.7 30.7,70.8 27.6,69.2 	"/>
	<polygon fill="#0099CC" points="33,65 34.7,64.7 36.2,66.6 36.2,73.7 33,72.1 	"/>
	<polygon fill="#0099CC" points="51.1,66.9 52.7,66.7 54.2,68.6 54.2,71.2 54.2,75.7 51.1,74 51.1,69.6 	"/>
	<polygon fill="#0099CC" points="56.5,69.8 58.2,69.6 59.7,71.5 59.7,78.6 56.5,76.9 	"/>
	<polygon fill="#0099CC" points="34.6,42.3 36.3,42 37.7,43.9 37.7,46.6 37.7,46.8 34.6,45.2 34.6,44.9 	"/>
	<polygon fill="#0099CC" points="40.2,45.2 41.9,44.9 43.4,46.8 43.4,49.5 43.4,49.6 40.2,48.1 40.2,47.8 	"/>
	<polygon fill="#0182A0" points="60.5,42.9 58.8,42.7 57.3,44.6 57.3,47.2 57.3,47.4 60.5,45.8 60.5,45.6 	"/>
	<polygon fill="#0182A0" points="54.8,45.8 53.2,45.5 51.7,47.4 51.7,50.1 51.7,50.3 54.8,48.7 54.8,48.4 	"/>
</g>
</svg>
