<svg id="Layer_1" data-name="Layer 1" xmlns="http://www.w3.org/2000/svg" xmlns:xlink="http://www.w3.org/1999/xlink" viewBox="0 0 12.39 23.21"><defs><style>.cls-1{fill:#0c0;}.cls-1,.cls-10,.cls-11,.cls-12,.cls-13,.cls-14,.cls-15,.cls-16,.cls-17,.cls-18,.cls-19,.cls-2,.cls-21,.cls-22,.cls-24,.cls-25,.cls-26,.cls-27,.cls-28,.cls-29,.cls-3,.cls-30,.cls-31,.cls-32,.cls-33,.cls-34,.cls-35,.cls-36,.cls-37,.cls-38,.cls-39,.cls-4,.cls-40,.cls-41,.cls-42,.cls-43,.cls-44,.cls-45,.cls-46,.cls-47,.cls-48,.cls-49,.cls-5,.cls-50,.cls-51,.cls-52,.cls-53,.cls-54,.cls-55,.cls-56,.cls-57,.cls-58,.cls-6,.cls-7,.cls-8,.cls-9{fill-rule:evenodd;}.cls-2{fill:#090;}.cls-3{fill:#f60;}.cls-4{fill:#b83100;}.cls-5{fill:#f90;}.cls-6{opacity:0.3;}.cls-7{fill:url(#linear-gradient);}.cls-8{fill:url(#linear-gradient-2);}.cls-9{fill:url(#linear-gradient-3);}.cls-10{fill:#dfa875;}.cls-11{fill:#9b6a3d;}.cls-12{fill:url(#linear-gradient-4);}.cls-13{fill:#b4875d;}.cls-14{fill:#ac7343;}.cls-15{fill:#4e3b18;}.cls-16{fill:#fc0;}.cls-17{fill:#f63;}.cls-18{fill:#df4816;}.cls-19{fill:url(#linear-gradient-5);}.cls-20{fill:url(#linear-gradient-6);}.cls-21{fill:url(#linear-gradient-7);}.cls-22{fill:url(#linear-gradient-8);}.cls-23{fill:url(#linear-gradient-9);}.cls-24{fill:#b17c4a;}.cls-25{fill:#6c4500;}.cls-26{fill:#ffe684;}.cls-27{fill:#459b18;}.cls-28{fill:#fcf0e2;}.cls-29{fill:#fff;}.cls-30{fill:#ff9894;}.cls-31{fill:#dae586;}.cls-32{fill:#484135;}.cls-33{fill:#fc2727;}.cls-34{fill:#9cb006;}.cls-35{fill:#5dbf00;}.cls-36{fill:#bf0102;}.cls-37{fill:#3f8100;}.cls-38{fill:#502604;}.cls-39{fill:#ec2424;}.cls-40{fill:url(#linear-gradient-10);}.cls-41{fill:#644d24;}.cls-42{fill:#e08a3e;}.cls-43{fill:#e59c00;}.cls-44{fill:#997531;}.cls-45{fill:#b38b40;}.cls-46{fill:#dab061;}.cls-47{fill:url(#linear-gradient-11);}.cls-48{fill:url(#linear-gradient-12);}.cls-49{fill:url(#linear-gradient-13);}.cls-50{fill:#b9d927;}.cls-51{fill:#a0b443;}.cls-52{fill:#ffa64d;}.cls-53{fill:#c60;}.cls-54{fill:#7eb92f;}.cls-55{fill:#ff5476;}.cls-56{fill:#ac0038;}.cls-57{fill:#5b8e18;}.cls-58{fill:#c30;}</style><linearGradient id="linear-gradient" x1="11.5" y1="21.46" x2="17.65" y2="21.46" gradientUnits="userSpaceOnUse"><stop offset="0" stop-color="#2a2a2a"/><stop offset="0.04" stop-color="#525252"/><stop offset="0.47" stop-color="#525252"/><stop offset="0.52" stop-color="#2a2a2a"/><stop offset="0.97" stop-color="#2a2a2a"/><stop offset="1" stop-color="#525252"/></linearGradient><linearGradient id="linear-gradient-2" x1="6.15" y1="17.99" x2="17.48" y2="17.99" gradientUnits="userSpaceOnUse"><stop offset="0" stop-color="#b17c4a"/><stop offset="0.05" stop-color="#dfa875"/><stop offset="0.71" stop-color="#dfa875"/><stop offset="0.75" stop-color="#b17c4a"/><stop offset="0.97" stop-color="#b17c4a"/><stop offset="1" stop-color="#6c4500"/></linearGradient><linearGradient id="linear-gradient-3" x1="6.19" y1="15.57" x2="17.57" y2="15.57" gradientUnits="userSpaceOnUse"><stop offset="0" stop-color="#b17c4a"/><stop offset="0.05" stop-color="#aa7c50"/><stop offset="0.71" stop-color="#aa7c50"/><stop offset="0.75" stop-color="#936437"/><stop offset="0.97" stop-color="#936437"/><stop offset="1" stop-color="#6c4500"/></linearGradient><linearGradient id="linear-gradient-4" x1="6.17" y1="18.42" x2="17.59" y2="18.42" gradientUnits="userSpaceOnUse"><stop offset="0" stop-color="#523400"/><stop offset="0.04" stop-color="#8a5800"/><stop offset="0.7" stop-color="#8a5800"/><stop offset="0.76" stop-color="#674200"/><stop offset="0.96" stop-color="#674200"/><stop offset="1" stop-color="#261800"/></linearGradient><linearGradient id="linear-gradient-5" x1="-3778.3" y1="-531.49" x2="-3765.51" y2="-531.49" gradientTransform="translate(466.78 78.08) scale(0.12)" gradientUnits="userSpaceOnUse"><stop offset="0" stop-color="#f60"/><stop offset="0.8" stop-color="#f30"/><stop offset="1" stop-color="#f90"/></linearGradient><linearGradient id="linear-gradient-6" x1="-650.37" y1="72.16" x2="-650.07" y2="72.16" gradientTransform="translate(808.8 -81.32) scale(1.23)" gradientUnits="userSpaceOnUse"><stop offset="0.13" stop-color="#dfa875"/><stop offset="0.78" stop-color="#6c4500"/></linearGradient><linearGradient id="linear-gradient-7" x1="-650.37" y1="76.3" x2="-650.07" y2="76.3" xlink:href="#linear-gradient-6"/><linearGradient id="linear-gradient-8" x1="-574.37" y1="120.15" x2="-574.07" y2="120.15" gradientTransform="translate(707.5 -139.77) scale(1.23)" xlink:href="#linear-gradient-6"/><linearGradient id="linear-gradient-9" x1="-574.37" y1="116.01" x2="-574.07" y2="116.01" gradientTransform="translate(707.5 -139.77) scale(1.23)" xlink:href="#linear-gradient-6"/><linearGradient id="linear-gradient-10" x1="-3709.09" y1="-669.91" x2="-3696.3" y2="-669.91" gradientTransform="translate(457.78 96.08) scale(0.12)" xlink:href="#linear-gradient-5"/><linearGradient id="linear-gradient-11" x1="1058.02" y1="168.09" x2="1061.16" y2="162.65" gradientTransform="matrix(-0.44, 0, 0, 0.44, 474.97, -61.17)" gradientUnits="userSpaceOnUse"><stop offset="0" stop-color="#f9ca15"/><stop offset="0.12" stop-color="#ffe686"/><stop offset="0.6" stop-color="#ffe37a"/><stop offset="0.88" stop-color="#edf3bf"/><stop offset="1" stop-color="#e6b75a"/></linearGradient><linearGradient id="linear-gradient-12" x1="936.78" y1="1152.46" x2="944.2" y2="1152.46" gradientTransform="matrix(-0.31, -0.31, -0.16, 0.45, 493.73, -222.96)" gradientUnits="userSpaceOnUse"><stop offset="0" stop-color="#e6b700"/><stop offset="0.12" stop-color="#feca00"/><stop offset="0.79" stop-color="#feca00"/><stop offset="0.9" stop-color="#c2cb7e"/><stop offset="1" stop-color="#997121"/></linearGradient><linearGradient id="linear-gradient-13" x1="880.66" y1="1168.8" x2="888.35" y2="1168.8" gradientTransform="matrix(-0.31, -0.31, -0.18, 0.44, 492.32, -229.38)" gradientUnits="userSpaceOnUse"><stop offset="0" stop-color="#c79f00"/><stop offset="0.12" stop-color="#ffad00"/><stop offset="0.72" stop-color="#ffad00"/><stop offset="0.89" stop-color="#abb562"/><stop offset="1" stop-color="#7a631e"/></linearGradient></defs><title>farmstand</title><path class="cls-1" d="M14.46,7.85l0,0a.67.67,0,0,0-.2-.34.56.56,0,0,1-.18-.32.15.15,0,0,1,0-.08.09.09,0,0,1,.08,0,.26.26,0,0,1,.22.16l.13.23h0l.3.83,0,0a1.06,1.06,0,0,0,0-.14,4.88,4.88,0,0,0-.08-.72q0-.48,0-.73V5.34a.33.33,0,0,1,0-.15Q14.85,5,15,5t.16.22a2.65,2.65,0,0,1,0,.43,8.33,8.33,0,0,0,.06.89,2.44,2.44,0,0,1-.05.51,3.4,3.4,0,0,0-.07.68q.26-.78.47-1.27a.27.27,0,0,1,.08.21.85.85,0,0,1-.07.32l-.08.21a2.71,2.71,0,0,0-.43.88,1.62,1.62,0,0,0,.47-.43l.13-.07-.1.09a2.23,2.23,0,0,0-.7,1h-.1v0a.51.51,0,0,0,0-.14A2.22,2.22,0,0,0,14.46,7.85Z" transform="translate(-5.61 -1.44)"/><path class="cls-2" d="M15.51,7.19l0,.12h0l.19-.17a1.81,1.81,0,0,1,.23-.2l.05,0S16,7,16,7a1.66,1.66,0,0,1-.2.3l-.26.34.06,0a1.62,1.62,0,0,1-.47.43A2.71,2.71,0,0,1,15.51,7.19Zm-1,.66a2.22,2.22,0,0,1,.35.65.51.51,0,0,1,0,.14v0h0q-.09,0-.1-.08l0-.09q0-.18-.4-.42a2.52,2.52,0,0,1-.4-.23q0-.13.26-.13h0a.37.37,0,0,1,.2.09h0l0,0Zm.42.82a2.23,2.23,0,0,1,.7-1l.1-.09.25-.11h.24l.06,0a.06.06,0,0,1,0,0,1.07,1.07,0,0,1-.31.13.82.82,0,0,0-.27.12,3.16,3.16,0,0,0-.25.32,3,3,0,0,1-.19.32q-.17.25-.32.25Zm0-1.25a4.88,4.88,0,0,1,.08.72,1.06,1.06,0,0,1,0,.14l0,0-.3-.83h0l-.16-.55a2.11,2.11,0,0,1-.08-.48V6.39l.09,0a1.29,1.29,0,0,1,.26.53l.13.54h0S14.85,7.43,14.85,7.42Z" transform="translate(-5.61 -1.44)"/><path class="cls-3" d="M14.12,9.57h0l-.17,0q-.13,0-.17-.08V9.47s.07-.12.2-.22l0,.05q.07.11.14.11s.06,0,.07,0V9.33a.49.49,0,0,0-.12-.17L14.27,9v0a.2.2,0,0,0,.18.13.09.09,0,0,0,.07,0h0v0a.6.6,0,0,0-.11-.2l.09-.06a.57.57,0,0,1,.38-.16.46.46,0,0,1,.27.17,6.51,6.51,0,0,1,.44.57,2.29,2.29,0,0,1,.39.63.14.14,0,0,1,0,.1.15.15,0,0,1-.11,0h0q-.28-.59-.47-.93Q15,8.69,15,9.05l.33.69.19.37h0l.15.35a2,2,0,0,1,.13.38.22.22,0,0,1,0,.11.14.14,0,0,1-.1.06A10.77,10.77,0,0,1,15.26,10L14.89,8.9h0V9s.1.4.3,1.08l.06.29,0,.13a1.24,1.24,0,0,0,0,.23.74.74,0,0,1,0,.14s0,.2.06.47v.17a.14.14,0,0,1-.15.13H15.1a2.86,2.86,0,0,0-.1-.34l-.14-.38H15a.09.09,0,0,0,.07,0,.12.12,0,0,0,0,0,.52.52,0,0,0-.19-.09l-.1,0h0a.35.35,0,0,0,0-.12l0-.09a.36.36,0,0,0,.24-.12.14.14,0,0,1,0-.07l-.28,0,0-.11a.52.52,0,0,0,.17-.1q.13-.1.13-.15l0,0a.86.86,0,0,0-.33.07V9.91l0,.09h0l0-.1V9.8a.38.38,0,0,0,.16-.11q.11-.11.11-.16a.1.1,0,0,0,0-.06h0a.47.47,0,0,0-.23.1h0a1,1,0,0,1,.11-.45l.1-.17s0,0,0-.05h0l-.22.27v0l-.28.25Zm0,.25a1.71,1.71,0,0,0,.22-.19q-.08.17-.17.39a4.87,4.87,0,0,0-.18.51h0a.13.13,0,0,1-.11-.08v-.09a3.25,3.25,0,0,1,.15-.38Zm.13.87,0-.07.15-.35,0,.05q0,.08.06.24a1,1,0,0,0,.12.32l0,.1q-.13.31-.28.31a.13.13,0,0,1-.14-.08v-.09a1.06,1.06,0,0,1,.06-.19.24.24,0,0,0,.18.09s.08,0,.09,0a.22.22,0,0,0,0-.06A.46.46,0,0,0,14.29,10.69ZM14.94,12l0,.07q-.06.18-.14.18T14.63,12v-.23a3.36,3.36,0,0,1,0-.51l.07.35Q14.84,11.91,14.94,12Z" transform="translate(-5.61 -1.44)"/><path class="cls-4" d="M14.58,9.75v.14l0,.1h0a1,1,0,0,0-.15.28q-.13.27-.25.27H14a4.87,4.87,0,0,1,.18-.51q.09-.23.17-.39a1.71,1.71,0,0,1-.22.19l0-.11.08-.22h0v0a.37.37,0,0,1-.17.12l.12-.12.28-.25v0l.22-.27h0s0,0,0,.05l-.1.17a1,1,0,0,0-.11.45v.17Zm0,.22v0h0l0-.09Zm.28.93.14.38a2.86,2.86,0,0,1,.1.34s-.08,0-.09-.06l0-.11v.35a.57.57,0,0,1,0,.16q-.1,0-.19-.36l-.07-.35v-.08q.06-.35.06-.37v-.22l-.12.32a1,1,0,0,1-.12-.32q0-.16-.06-.24l0-.05.1-.22v0h0l.06.17,0,.11.08.21,0,.09a.35.35,0,0,1,0,.12v0h0Zm.84.12h0q-.19,0-.43-.56h0v0l0-.13-.06-.29q-.3-1-.3-1.08V8.91h0L15.26,10A10.77,10.77,0,0,0,15.7,11Zm.16-.79-.31-.11h0l-.19-.37L15,9.05q0-.36.36.25Q15.58,9.64,15.86,10.23Z" transform="translate(-5.61 -1.44)"/><path class="cls-5" d="M14.57,10a.86.86,0,0,1,.33-.07l0,0s0,.09-.13.15a.52.52,0,0,1-.17.1L14.58,10h0Zm0-.22V9.58h0a.47.47,0,0,1,.23-.1h0a.1.1,0,0,1,0,.06s0,.09-.11.16a.38.38,0,0,1-.16.11Zm.09.55.28,0a.14.14,0,0,0,0,.07.36.36,0,0,1-.24.12Zm.18.6-.06-.16h0v0h0l.1,0a.52.52,0,0,1,.19.09.12.12,0,0,1,0,0,.09.09,0,0,1-.07,0Zm-.41-2a.6.6,0,0,1,.11.2v0h0a.09.09,0,0,1-.07,0,.2.2,0,0,1-.18-.13V9ZM14,9.25l.13-.09h0a.49.49,0,0,1,.12.17v.05s0,0-.07,0S14,9.38,14,9.3Zm.25,1.68,0-.08,0-.13v0a.46.46,0,0,1,.2.22.22.22,0,0,1,0,.06s0,0-.09,0A.24.24,0,0,1,14.2,10.94Z" transform="translate(-5.61 -1.44)"/><polygon class="cls-6" points="0 18.06 8.98 23.21 12.39 21.26 3.41 16.11 0 18.06"/><path class="cls-7" d="M17.65,21.47a.06.06,0,0,0,0,0h0v0Z" transform="translate(-5.61 -1.44)"/><path class="cls-8" d="M6.17,18.25V12.87l0,0v.25l.63.36q-.08.52-.13,1a22.19,22.19,0,0,0-.12,2.32q0,.12.1,1.66s0,.08,0,.14l-.44-.25a.14.14,0,0,1-.07-.08h0Zm1.43.91-.74-.43,0,0,0-.45q-.09-1.08-.09-1.48a22.64,22.64,0,0,1,.18-2.36L7,13.62,7.7,14q0,.64,0,1.48,0,1.41,0,1.67Zm.29-5,.68.39,0,1.08Q8.48,17.48,8.48,18q0,.12.09,1.75l-.82-.47q0-.44.06-1a9.17,9.17,0,0,0,.05-1.68V14.43Q7.88,14.29,7.89,14.12Zm.82.47.82.47v1.8l.05.12v2.53a2.76,2.76,0,0,1,.05.62q0,.1,0,.19l-.87-.5q0-1,0-2.45,0-1.91,0-2.07T8.71,14.59Zm1,.58.47.27,0,.24a2.16,2.16,0,0,0,.1,1.07v3.5a3.28,3.28,0,0,1,0,.45l-.48-.28v-.27a3.42,3.42,0,0,0-.05-.68V16.92a.64.64,0,0,0-.05-.12Zm.76,5.63a3.21,3.21,0,0,0,0-.59V16.68a9.68,9.68,0,0,1-.06-1.13l1.06.61q0,.27,0,.55,0,.76.06,1.19v2.64q0,.48,0,.85Zm1.17-4.52.73.42v4.88a1,1,0,0,1,.07.35l-.78-.45,0-2.3q0-1.24,0-1.83Zm.93.54.86.49v.12q-.07.95-.23,2.86-.09,1.13-.13,2L12.62,22q0-.56,0-1.15t0-2.16Zm1,.58.84.48a.31.31,0,0,0,.18.05l.57.06.16,0,.5.05.15,0q-.08.79-.08,1.19l-.09,3q0,.1,0,.19l-.51.29q0-.45,0-.66s0-.25-.05-.62-.05-.58-.05-.63,0-.38,0-.94.06-1.06.08-1.42V18l-.17,0v.45q0,.28-.08.73t0,.51q0,.2,0,.79,0,.77.05,1.19v1.2l-.36.21a.31.31,0,0,1-.32,0l-1.17-.67q0-1.42.17-2.77T13.57,17.4Zm3.28,4.46q0-.57-.09-1.45-.1-1.44-.1-2.13s0-.08,0-.13l.91.1v3.12a.07.07,0,0,1,0,0,.17.17,0,0,1-.07.07Zm-.37-3.73v.14q0,1,.06,2.17,0,.83.1,1.54l-.72.41.07,0V22.2l.21-4.1h0l.27,0Z" transform="translate(-5.61 -1.44)"/><path class="cls-9" d="M15.18,17.38q0,.21,0,.57v0l-.57-.06a.31.31,0,0,1-.18-.05l-.84-.48h0l-.07,0-.07,0-.86-.49-.2-.12-.73-.42h0l-.21-.12h0l-1.06-.61h0l-.19-.11h0l-.47-.27h0l-.07,0h0l-.09-.05-.82-.47h0l-.14-.08h0l-.68-.39h0L7.7,14h0L7,13.62l-.21-.12-.63-.36v-.25l8.22,4.75a.31.31,0,0,0,.33,0Zm.21-.12.52-.3q0,.3-.09.82a1.8,1.8,0,0,0,0,.29l-.5-.05a1.68,1.68,0,0,0,0-.18q0-.28,0-.41A1,1,0,0,1,15.39,17.26Zm1.27.9h0q0-.38.09-1l.06-.72.74-.42v2.25Zm0-1.61A6.23,6.23,0,0,0,16.47,18s0,.09,0,.14l-.27,0s0-.1,0-.15q0-.47,0-.69a2.21,2.21,0,0,1,0-.48Z" transform="translate(-5.61 -1.44)"/><path class="cls-10" d="M16.06,16.53l1.51-.87a.23.23,0,0,0,.08-.07.09.09,0,0,1,0,0h0s0,.06-.08.09l-2.84,1.64a.28.28,0,0,1-.3,0L6.15,12.58q-.08,0-.06-.1l.05,0,8.28,4.78a.28.28,0,0,0,.3,0l1.22-.7Zm1.6,5s0,.06-.08.09l-2.84,1.64a.28.28,0,0,1-.3,0L6.15,18.46q-.08,0-.06-.1l.05.05,8.28,4.78a.27.27,0,0,0,.3,0l2.84-1.64a.23.23,0,0,0,.08-.07v0Z" transform="translate(-5.61 -1.44)"/><path class="cls-11" d="M8.19,11.2q1.22.59,3.81,2.12l3.3,2,1.43.85.11-.06-2.1-1.29q-1.91-1.19-3.15-1.91L10.12,12q-1-.57-1.64-.88l-.13-.06L9,10.72a.27.27,0,0,1,.29,0l8.28,4.78q.08,0,.06.1a.23.23,0,0,1-.08.07l-1.51.87q-1.5-1-3.7-2.32l-4.71-2.7Zm-1.59.92.94-.54q1,.61,3.13,1.83,3.48,2,5.28,3.19l-1.22.7a.28.28,0,0,1-.3,0L6.15,12.53l-.05,0s0-.08.08-.12l.32-.18q2.88,1.56,5.78,3.3l-1.19-.75q-1.3-.8-2.1-1.27Q7.83,12.78,6.59,12.12Zm2,7.59.09.05,0,0,.08,0h0l.87.5.19.11.48.28.18.1,1,.59.16.09.78.45.17.1.45.26.18.1,1.17.67a.31.31,0,0,0,.32,0l.36-.21.2-.11.51-.29.12-.07.72-.41.21-.12.64-.37a.17.17,0,0,0,.07-.07.07.07,0,0,0,0,0v0h0a.11.11,0,0,1,.06.07.06.06,0,0,1,0,0,.23.23,0,0,1-.08.07l-2.84,1.64a.27.27,0,0,1-.3,0L6.15,18.42l-.05-.05a0,0,0,0,1,0-.05.17.17,0,0,1,.07-.07v.05h0a.14.14,0,0,0,.07.08l.44.25.1.06.07,0,.74.43.15.09Z" transform="translate(-5.61 -1.44)"/><path class="cls-12" d="M6.09,12.49s0,.07.06.1l8.28,4.78a.28.28,0,0,0,.3,0l2.84-1.64q.08,0,.08-.09v.28s0,.07-.08.1h0l-.74.42-.16.09h-.05l-.41.24L15.9,17l-.52.3-.21.12-.44.25a.31.31,0,0,1-.33,0L6.19,12.88l0,0h0s-.07-.05-.07-.08h0v-.29Zm0,5.83a0,0,0,0,0,0,.05s0,.07.06.1l8.28,4.78a.28.28,0,0,0,.3,0l2.84-1.64q.08-.05.08-.09v.22h0v.85s0,.07-.08.1l-2.83,1.64a.31.31,0,0,1-.33,0l-2.83-1.64h0L6.17,19.55h0s-.06-.05-.06-.08h0V18.32Z" transform="translate(-5.61 -1.44)"/><path class="cls-13" d="M8.35,11.1l.13.06q.64.31,1.64.88l1.47.84q1.24.73,3.15,1.91l2.1,1.29-.11.06L15.3,15.3l-3.3-2Q9.41,11.79,8.19,11.2Zm-.7.41,4.71,2.7q2.19,1.28,3.7,2.32l-.12.07q-1.8-1.18-5.28-3.19-2.11-1.22-3.13-1.83ZM7,13.62l-.09.83a22.64,22.64,0,0,0-.18,2.36q0,.39.09,1.48l0,.45,0,0-.07,0-.1-.06q0-.08,0-.14-.1-1.53-.1-1.66a22.19,22.19,0,0,1,.12-2.32q.05-.49.13-1Zm-.44-1.51q1.23.66,2.38,1.33.8.47,2.1,1.27l1.19.75q-2.9-1.74-5.78-3.3Zm1.16,7.12-.15-.09.05-2q0-.25,0-1.67,0-.85,0-1.48h0l.19.11h0q0,.17,0,.31v2.14a9.17,9.17,0,0,1-.05,1.68Q7.75,18.8,7.75,19.24Zm1-4.65q0,.57,0,.71t0,2.07q0,1.45,0,2.45h0l-.08,0,0,0-.09-.05Q8.48,18.08,8.48,18q0-.48.05-2.37l0-1.08h0l.14.08Zm1.47.85h0l.19.11h0a9.68,9.68,0,0,0,.06,1.13v3.54a3.21,3.21,0,0,1,0,.59l-.18-.1a3.28,3.28,0,0,0,0-.45v-3.5a2.16,2.16,0,0,1-.1-1.07Zm-.47-.27V16.8a.64.64,0,0,1,.05.12v2.57a3.42,3.42,0,0,1,.05.68v.27l-.19-.11q0-.09,0-.19a2.76,2.76,0,0,0-.05-.62V17l-.05-.12v-1.8l.09.05h0l.07,0Zm1.72,1h0l.21.12h0v1.07q0,.58,0,1.83l0,2.3-.16-.09q0-.37,0-.85V17.9q0-.42-.06-1.19Q11.44,16.44,11.44,16.17Zm.94.54.2.12v1.9q0,1.7,0,2.16t0,1.15l-.17-.1a1,1,0,0,0-.07-.35Zm1.06.61.07,0,.07,0h0q0,1-.15,2.23t-.17,2.77l-.18-.1q0-.88.13-2,.17-1.91.23-2.86Zm3,.82h0l.18,0h0s0,.09,0,.13q0,.69.1,2.13.06.88.09,1.45l-.21.12q-.06-.71-.1-1.54-.06-1.13-.06-2.17Zm-.67,4.32q0-.09,0-.19l.09-3q0-.4.08-1.19l.23,0L16,22.2v.15l-.07,0Zm-.7.4v-1.2q0-.42-.05-1.19,0-.59,0-.79t0-.51q0-.45.08-.73V18l.17,0v.46q0,.54-.08,1.42t0,.94s0,.25.05.63.05.58.05.62,0,.36,0,.66Z" transform="translate(-5.61 -1.44)"/><path class="cls-14" d="M16.66,18.16h0l-.18,0h0q0-.08,0-.14a6.23,6.23,0,0,1,.16-1.45h.05l.16-.09-.06.72q-.06.63-.09,1Zm-1.27-.9a1,1,0,0,0,0,.16q0,.14,0,.41a1.68,1.68,0,0,1,0,.18l-.16,0v0q0-.36,0-.57Zm.82.85h0l-.23,0-.15,0a1.8,1.8,0,0,1,0-.29q.08-.51.09-.82l.31-.18a2.21,2.21,0,0,0,0,.48q0,.22,0,.69Q16.21,18,16.2,18.11Z" transform="translate(-5.61 -1.44)"/><path class="cls-15" d="M14.67,14.82a1.12,1.12,0,0,1-1,0,.31.31,0,0,1,0-.59,1.12,1.12,0,0,1,1,0,.31.31,0,0,1,0,.59Z" transform="translate(-5.61 -1.44)"/><path class="cls-5" d="M14.92,13.94a.33.33,0,0,1-.12.22h0l0,0h0l0,0h0l0,0h0l-.07,0h0l-.06,0h0l-.13,0h-.41l-.08,0-.08,0,0,0,0,0-.08,0,0,0h0l0,0,0,0a.31.31,0,0,1-.1-.19v0a.37.37,0,0,1,.23-.31,1.2,1.2,0,0,1,1.09,0,.38.38,0,0,1,.23.3h0Zm-1.47,0a.26.26,0,0,0,0,.15.47.47,0,0,0,.16.13,1.1,1.1,0,0,0,1,0,.48.48,0,0,0,.16-.14.26.26,0,0,0,0-.15.34.34,0,0,0-.2-.28,1.09,1.09,0,0,0-1,0A.34.34,0,0,0,13.45,13.92Z" transform="translate(-5.61 -1.44)"/><path class="cls-16" d="M13.64,14.11a.3.3,0,0,0,.17.06s.06,0,.13-.12a.59.59,0,0,0,.11-.14s0,0,0,0h-.43l-.1,0v0a.24.24,0,0,0,0,0,.12.12,0,0,0,0,.07h0l0,0h0Zm-.19-.2a.34.34,0,0,1,.2-.28,1.09,1.09,0,0,1,1,0,.34.34,0,0,1,.2.28.26.26,0,0,1,0,.15.48.48,0,0,1-.16.14,1.1,1.1,0,0,1-1,0,.47.47,0,0,1-.16-.13A.26.26,0,0,1,13.45,13.92Zm1.16-.2h0a.29.29,0,0,0-.15,0,.34.34,0,0,0-.16.1h0a.63.63,0,0,0,.19.06l.23,0h0a0,0,0,0,0,0,0,.12.12,0,0,0,0-.07l0,0h0l-.07,0h0Zm-.35-.14h-.16a.07.07,0,0,0,0,.05l.06.1q.07.1.09.1h0l.07-.1.07-.1v0h-.11Zm.36.56,0,0h0l0,0h0s-.06-.07-.19-.11a1.11,1.11,0,0,0-.27-.07h0v0l0,0,.06.09q.1.14.17.14A.21.21,0,0,0,14.62,14.14Zm-.86-.51-.07,0,0,0a.12.12,0,0,0,0,.08.05.05,0,0,0,0,.05.56.56,0,0,0,.24,0,.55.55,0,0,0,.21,0,0,0,0,0,0,0,0s0-.06-.13-.11l-.16-.09Zm.35.64h.08q.16,0,.16-.07l0-.05,0-.1q-.08-.14-.13-.14s-.08,0-.13.11a.33.33,0,0,0-.07.16.07.07,0,0,0,0,0A.21.21,0,0,0,14.11,14.26Z" transform="translate(-5.61 -1.44)"/><path class="cls-17" d="M13.64,14.11l.29-.17a.31.31,0,0,0-.19,0l-.19.07a.12.12,0,0,1,0-.07.24.24,0,0,1,0,0v0l.1,0h.43s0,0,0,0a.59.59,0,0,1-.11.14q-.11.12-.13.12A.3.3,0,0,1,13.64,14.11Zm.54-.55a1.21,1.21,0,0,0,0,.15h0l0-.12v0h.11v0l-.07.1-.07.1h0s0,0-.09-.1l-.06-.1a.07.07,0,0,1,0-.05Zm.43.15a.39.39,0,0,0-.17.1h.05l.22,0h0a.12.12,0,0,1,0,.07,0,0,0,0,1,0,0h0l-.23,0a.63.63,0,0,1-.19-.06h0a.34.34,0,0,1,.16-.1.29.29,0,0,1,.15,0Zm.1.34-.1,0a.81.81,0,0,0-.26-.06l.07.06.09.07.11.06a.21.21,0,0,1-.11,0s-.1,0-.17-.14l-.06-.09,0,0v0h0a1.11,1.11,0,0,1,.27.07q.19.07.19.11Zm-1-.43.08,0,.16.09q.13.09.13.11a0,0,0,0,1,0,0,.55.55,0,0,1-.21,0,.56.56,0,0,1-.24,0,.05.05,0,0,1,0-.05.12.12,0,0,1,0-.08h0a1,1,0,0,0,.32.08h0l-.1-.06Zm.44.64h0v0a1,1,0,0,0,0-.25.59.59,0,0,0,0,.2s0,.05,0,.08h0a.21.21,0,0,1-.12,0,.07.07,0,0,1,0,0A.33.33,0,0,1,14,14q.07-.11.13-.11s.08,0,.13.14l0,.1,0,.05S14.3,14.25,14.2,14.26Z" transform="translate(-5.61 -1.44)"/><path class="cls-18" d="M13.55,14l.19-.07a.31.31,0,0,1,.19,0l-.29.17,0,0h0l0,0h0Zm.71-.46v0l0,.12h0a1.21,1.21,0,0,1,0-.15h.08Zm.35.14h0l.07,0h0l0,0h0l-.22,0h-.05A.39.39,0,0,1,14.61,13.71Zm0,.42-.11-.06L14.42,14,14.35,14a.81.81,0,0,1,.26.06l.1,0h0l0,0h0Zm-1-.44,0,0,.07,0,.16.09.1.06h0a1,1,0,0,1-.32-.08Zm.45.56h0s0-.06,0-.08a.59.59,0,0,1,0-.2,1,1,0,0,1,0,.25v0h-.09Z" transform="translate(-5.61 -1.44)"/><path class="cls-19" d="M13.38,13.95a.31.31,0,0,0,.1.19l0,0,0,0h0l0,0,.08,0,0,0,0,0,.08,0,.08,0h.41l.13,0h0l.06,0h0l.07,0h0l0,0h0l0,0h0l0,0h0a.33.33,0,0,0,.12-.22.76.76,0,0,1,0,.17l0,.11,0,.07a.71.71,0,0,1-.14.16l0,0,0,0h-.06l-.05,0-.15.05h-.4a.76.76,0,0,1-.22-.1h0l0,0h0l0,0-.06-.05-.07-.08,0,0,0,0,0-.06,0-.08A.76.76,0,0,1,13.38,13.95Z" transform="translate(-5.61 -1.44)"/><rect class="cls-20" x="8.85" y="5.52" width="0.37" height="3.82"/><polygon class="cls-21" points="9.21 9.34 9.21 15.62 9.2 15.65 9.17 15.68 9.08 15.7 9.03 15.7 8.85 15.62 8.85 9.34 9.21 9.34"/><polygon class="cls-22" points="1.39 4.83 1.39 11.11 1.37 11.14 1.34 11.16 1.26 11.19 1.21 11.19 1.03 11.11 1.03 4.83 1.39 4.83"/><rect class="cls-23" x="1.03" y="1.01" width="0.37" height="3.82"/><path class="cls-10" d="M15,6.55l-.23.13-.92-.52h0L10.6,4.25h0L6.88,2.08,6.77,2h.06L6,1.57l.23-.13L10.6,4h0ZM6,3.61q1,.48,1.72.84A13.61,13.61,0,0,1,10.17,6q-.56-.33-2.42-1.31L6,3.71ZM6,2.13V1.92a7.38,7.38,0,0,1,.87.5q.63.41,2.05,1.42v0Q8.3,3.53,7,2.72Zm8.83,7.12L14,8.75q-2.23-1.29-3-1.71a7.24,7.24,0,0,1,1.25.61q.94.55,1.42.76l1.2.65Zm0-1.27v.16l-1.13-.59q-.61-.34-1.8-1.13T10.17,5.33a12.75,12.75,0,0,1,1.76,1l1.77,1.13Zm0-.76v.08l-1-.59q-1.55-.88-2.55-1.51h0Q13.13,6.23,14.82,7.21Z" transform="translate(-5.61 -1.44)"/><path class="cls-24" d="M14.82,6.68v.53q-1.68-1-3.58-2h0q1,.63,2.55,1.51l1,.59V8l-1.12-.54L11.93,6.3a12.75,12.75,0,0,0-1.76-1q.51.28,1.71,1.08t1.8,1.13l1.13.59v.93l-1.2-.65q-.48-.21-1.42-.76A7.24,7.24,0,0,0,10.94,7q.78.42,3,1.71l.86.5v.27L8.14,5.67v0L6,4.41v-.7l1.76.95q1.86,1,2.42,1.31A13.61,13.61,0,0,0,7.71,4.45Q7,4.09,6,3.61V2.13l1,.59q1.34.82,2,1.15v0q-1.42-1-2.05-1.42A7.38,7.38,0,0,0,6,1.92V1.57L6.82,2H6.77l.11,0L10.6,4.23h0l3.32,1.92h0Z" transform="translate(-5.61 -1.44)"/><polygon class="cls-25" points="9.2 6.54 9.2 5.86 9.2 5.78 9.2 5.25 9.44 5.11 9.44 7.95 9.2 8.09 9.2 7.81 9.2 7.63 9.2 6.7 9.2 6.54"/><path class="cls-26" d="M10.26,8.15v.62q0,.1-.09,0l-.54-.31V9.7a.07.07,0,0,1,0,0l0,0h0l-.05,0a.07.07,0,0,1,0,0V8.42L9.11,8.2A.16.16,0,0,1,9,8.06V7.43q0-.1.09,0L10.18,8A.16.16,0,0,1,10.26,8.15Z" transform="translate(-5.61 -1.44)"/><path class="cls-15" d="M8.84,11h0a.28.28,0,0,0,0,.52l1,.58a1,1,0,0,0,.91,0h0a.27.27,0,0,0,0-.52l-1-.58a1,1,0,0,0-.91,0Z" transform="translate(-5.61 -1.44)"/><path class="cls-27" d="M11,10.69l.22.13a1.28,1.28,0,0,1-.3.93l-.09.08h0l-.1.07a1.13,1.13,0,0,1-1.17-.12,3.24,3.24,0,0,1-1.17-1.24A3.25,3.25,0,0,1,7.91,8.9L8.11,9h0s0,.08,0,.12h0a2.91,2.91,0,0,0,.42,1.29,2.91,2.91,0,0,0,.92,1h0l.09.06a1.18,1.18,0,0,0,.76.19.76.76,0,0,0,.26-.09A1,1,0,0,0,11,10.69Z" transform="translate(-5.61 -1.44)"/><path class="cls-28" d="M8.32,9.14a2.43,2.43,0,0,0,.36,1.22,2.45,2.45,0,0,0,.88.93l.1.06a.78.78,0,0,0,.77,0,.84.84,0,0,0,.37-.8l.2.11a1,1,0,0,1-.42.93.76.76,0,0,1-.26.09,1.18,1.18,0,0,1-.76-.19l-.09-.06h0a2.91,2.91,0,0,1-.92-1,2.91,2.91,0,0,1-.42-1.29h0s0-.08,0-.12Z" transform="translate(-5.61 -1.44)"/><path class="cls-29" d="M8.11,9l.39-.23.21.12-.39.23L8.13,9Zm2.69,1.55.39-.23.2.11-.39.23Z" transform="translate(-5.61 -1.44)"/><polygon class="cls-30" points="5.59 8.91 5.2 9.14 2.71 7.71 3.1 7.48 5.59 8.91"/><path class="cls-31" d="M8.51,8.79,8.11,9,7.91,8.9l.39-.23Zm3.11,1.79-.39.23L11,10.69l.39-.23Z" transform="translate(-5.61 -1.44)"/><path class="cls-32" d="M10.41,10.71a.22.22,0,0,1,0-.1.08.08,0,0,1,0-.07.07.07,0,0,1,.07,0,.21.21,0,0,1,.07.08.21.21,0,0,1,0,.1.07.07,0,0,1,0,.07.07.07,0,0,1-.07,0A.2.2,0,0,1,10.41,10.71Zm-.27-.24a.08.08,0,0,1,0,.07.07.07,0,0,1-.07,0,.23.23,0,0,1-.1-.18.06.06,0,0,1,.1-.06.22.22,0,0,1,.07.08A.21.21,0,0,1,10.14,10.46ZM9.63,11a.07.07,0,0,1,0,.07.07.07,0,0,1-.07,0A.22.22,0,0,1,9.46,11a.2.2,0,0,1,0-.1.07.07,0,0,1,0-.07.07.07,0,0,1,.07,0,.2.2,0,0,1,.07.08A.21.21,0,0,1,9.63,11Zm.27.07a.07.07,0,0,1,.07,0,.21.21,0,0,1,.07.08.2.2,0,0,1,0,.1.07.07,0,0,1,0,.07.07.07,0,0,1-.07,0,.2.2,0,0,1-.07-.08.2.2,0,0,1,0-.1A.07.07,0,0,1,9.91,11Zm-.19-.43a.07.07,0,0,1,0-.07.07.07,0,0,1,.07,0,.21.21,0,0,1,.07.08.2.2,0,0,1,0,.1.06.06,0,0,1-.1.06.2.2,0,0,1-.07-.08A.19.19,0,0,1,9.72,10.62ZM9,10.53a.07.07,0,0,1,.07,0,.21.21,0,0,1,.07.08.2.2,0,0,1,0,.1.07.07,0,0,1,0,.07H9.08A.21.21,0,0,1,9,10.7a.2.2,0,0,1,0-.09H9A.07.07,0,0,1,9,10.53Zm.29-.24a.07.07,0,0,1,.07,0,.2.2,0,0,1,.07.08.21.21,0,0,1,0,.1.07.07,0,0,1,0,.07.07.07,0,0,1-.07,0,.2.2,0,0,1-.07-.08.2.2,0,0,1,0-.1A.07.07,0,0,1,9.3,10.29Zm-.23-.54a.07.07,0,0,1,.07,0,.22.22,0,0,1,.11.18.07.07,0,0,1,0,.07.07.07,0,0,1-.07,0,.2.2,0,0,1-.07-.08.2.2,0,0,1,0-.1A.07.07,0,0,1,9.07,9.76Zm.52.27a.21.21,0,0,1,.07.08.21.21,0,0,1,0,.1.08.08,0,0,1,0,.07.07.07,0,0,1-.07,0,.2.2,0,0,1-.07-.08.2.2,0,0,1,0-.1.07.07,0,0,1,0-.07A.07.07,0,0,1,9.59,10Zm-.67,0a.2.2,0,0,1,.07.08.21.21,0,0,1,0,.1.07.07,0,0,1,0,.06.07.07,0,0,1-.07,0,.23.23,0,0,1-.1-.18.07.07,0,0,1,0-.07A.07.07,0,0,1,8.92,10Zm-.16-.46a.21.21,0,0,1,0,.1.07.07,0,0,1,0,.07.07.07,0,0,1-.07,0,.21.21,0,0,1-.07-.08.21.21,0,0,1,0-.1.06.06,0,0,1,.1-.06A.2.2,0,0,1,8.76,9.58Zm1.51,1.24a.21.21,0,0,1,.07.08.2.2,0,0,1,0,.1.07.07,0,0,1,0,.06.07.07,0,0,1-.07,0,.24.24,0,0,1-.1-.18.06.06,0,0,1,.1-.06Z" transform="translate(-5.61 -1.44)"/><path class="cls-33" d="M10.14,10.46a.21.21,0,0,0,0-.1.22.22,0,0,0-.07-.08.06.06,0,0,0-.1.06.23.23,0,0,0,.1.18.07.07,0,0,0,.07,0A.08.08,0,0,0,10.14,10.46Zm.27.24a.2.2,0,0,0,.07.08.07.07,0,0,0,.07,0,.07.07,0,0,0,0-.07.21.21,0,0,0,0-.1.21.21,0,0,0-.07-.08.07.07,0,0,0-.07,0,.08.08,0,0,0,0,.07A.22.22,0,0,0,10.41,10.71ZM9.59,10a.07.07,0,0,0-.07,0,.07.07,0,0,0,0,.07.2.2,0,0,0,0,.1.2.2,0,0,0,.07.08.07.07,0,0,0,.07,0,.08.08,0,0,0,0-.07.21.21,0,0,0,0-.1A.21.21,0,0,0,9.59,10Zm-.52-.27a.07.07,0,0,0,0,.07.2.2,0,0,0,0,.1.2.2,0,0,0,.07.08.07.07,0,0,0,.07,0,.07.07,0,0,0,0-.07.22.22,0,0,0-.11-.18A.07.07,0,0,0,9.07,9.76Zm.23.54a.07.07,0,0,0,0,.07.2.2,0,0,0,0,.1.2.2,0,0,0,.07.08.07.07,0,0,0,.07,0,.07.07,0,0,0,0-.07.21.21,0,0,0,0-.1.2.2,0,0,0-.07-.08A.07.07,0,0,0,9.3,10.29ZM9,10.53a.07.07,0,0,0,0,.07H9a.2.2,0,0,0,0,.09.21.21,0,0,0,.07.08h.07a.07.07,0,0,0,0-.07.2.2,0,0,0,0-.1.21.21,0,0,0-.07-.08A.07.07,0,0,0,9,10.53Zm.71.09a.19.19,0,0,0,0,.1.2.2,0,0,0,.07.08.06.06,0,0,0,.1-.06.2.2,0,0,0,0-.1.21.21,0,0,0-.07-.08.07.07,0,0,0-.07,0A.07.07,0,0,0,9.72,10.62Zm.19.43a.07.07,0,0,0,0,.07.2.2,0,0,0,0,.1.2.2,0,0,0,.07.08.07.07,0,0,0,.07,0,.07.07,0,0,0,0-.07.2.2,0,0,0,0-.1.21.21,0,0,0-.07-.08A.07.07,0,0,0,9.91,11ZM9.63,11a.21.21,0,0,0,0-.1.2.2,0,0,0-.07-.08.07.07,0,0,0-.07,0,.07.07,0,0,0,0,.07.2.2,0,0,0,0,.1.22.22,0,0,0,.07.08.07.07,0,0,0,.07,0A.07.07,0,0,0,9.63,11ZM8.32,9.14l2.48,1.43a.84.84,0,0,1-.37.8.78.78,0,0,1-.77,0l-.1-.06a2.45,2.45,0,0,1-.88-.93A2.43,2.43,0,0,1,8.32,9.14Zm1.95,1.68a.06.06,0,0,0-.1.06.24.24,0,0,0,.1.18.07.07,0,0,0,.07,0,.07.07,0,0,0,0-.06.2.2,0,0,0,0-.1A.21.21,0,0,0,10.27,10.82ZM8.76,9.58a.2.2,0,0,0-.07-.08.06.06,0,0,0-.1.06.21.21,0,0,0,0,.1.21.21,0,0,0,.07.08.07.07,0,0,0,.07,0,.07.07,0,0,0,0-.07A.21.21,0,0,0,8.76,9.58Zm.16.46a.07.07,0,0,0-.07,0,.07.07,0,0,0,0,.07.23.23,0,0,0,.1.18.07.07,0,0,0,.07,0,.07.07,0,0,0,0-.06.21.21,0,0,0,0-.1A.2.2,0,0,0,8.92,10Z" transform="translate(-5.61 -1.44)"/><path class="cls-34" d="M11.22,10.82l.39-.23a1.13,1.13,0,0,1-.49,1.07l-.1,0-.1.07-.09,0h0l.09-.08A1.28,1.28,0,0,0,11.22,10.82Z" transform="translate(-5.61 -1.44)"/><path class="cls-26" d="M16.46,13.16v.62q0,.1-.09,0l-.54-.31v1.2a.07.07,0,0,1,0,0l0,0h0l-.05,0a.07.07,0,0,1,0,0V13.44l-.38-.22a.16.16,0,0,1-.09-.15v-.62q0-.1.09,0l1.07.62A.16.16,0,0,1,16.46,13.16Z" transform="translate(-5.61 -1.44)"/><path class="cls-15" d="M16.25,16a1.12,1.12,0,0,1-1,0,.31.31,0,0,1,0-.59,1.12,1.12,0,0,1,1,0,.31.31,0,0,1,0,.59Z" transform="translate(-5.61 -1.44)"/><path class="cls-35" d="M16.81,14.05l-1.09.46,0-.14a.76.76,0,0,1,.59-.33Z" transform="translate(-5.61 -1.44)"/><path class="cls-36" d="M16.24,14.48a.41.41,0,0,1,.14.15.61.61,0,0,1,.07.63,1.87,1.87,0,0,1-.32.55q-.14.19-.38-.06a.81.81,0,0,0,.19-.58.81.81,0,0,0-.1-.53l-.11-.12h0l.51,0h0Z" transform="translate(-5.61 -1.44)"/><path class="cls-37" d="M15.72,14.51l1.09-.46a5.7,5.7,0,0,1-.58.43h0Z" transform="translate(-5.61 -1.44)"/><path class="cls-38" d="M15.75,14.37l0,.14h0l-.08,0h0l0,0a.11.11,0,0,0,.06-.12q-.1-.28-.34-.23l.05-.16a.48.48,0,0,1,.18.1l.05,0A.68.68,0,0,1,15.75,14.37Z" transform="translate(-5.61 -1.44)"/><path class="cls-39" d="M15.72,14.51l.11.12a.81.81,0,0,1,.1.53.81.81,0,0,1-.19.58q-.22.2-.36.09a.63.63,0,0,1-.11-.12,2,2,0,0,1-.17-.26l0-.06a.86.86,0,0,1-.11-.5.73.73,0,0,1,.18-.36l.08-.06.12-.05a.3.3,0,0,1,.25,0l.05,0h0l.08,0Zm-.52.37q.05-.1.13-.09h.19s.06,0,.06-.1a.12.12,0,0,0-.08-.13.22.22,0,0,0-.17,0l-.08,0-.09.09a.31.31,0,0,0-.08.21.34.34,0,0,0,0,.12.42.42,0,0,0,.08.13h0a.54.54,0,0,1-.06-.18A.24.24,0,0,1,15.2,14.89Z" transform="translate(-5.61 -1.44)"/><path class="cls-29" d="M15.2,14.89a.24.24,0,0,0,0,.1.54.54,0,0,0,.06.18h0a.42.42,0,0,1-.08-.13.34.34,0,0,1,0-.12.31.31,0,0,1,.08-.21l.09-.09.08,0a.22.22,0,0,1,.17,0,.12.12,0,0,1,.08.13q0,.1-.06.1h-.19Q15.25,14.79,15.2,14.89Z" transform="translate(-5.61 -1.44)"/><path class="cls-15" d="M14,16.21a1.12,1.12,0,0,1-1,0,.31.31,0,0,1,0-.59,1.12,1.12,0,0,1,1,0,.31.31,0,0,1,0,.59Z" transform="translate(-5.61 -1.44)"/><path class="cls-5" d="M14.22,15.33a.33.33,0,0,1-.12.22h0l0,0h0l0,0h0l0,0h0l-.07,0h0l-.06,0h0l-.13,0h-.41l-.08,0-.08,0,0,0,0,0-.08,0,0,0h0l0,0,0,0a.31.31,0,0,1-.1-.19v0a.37.37,0,0,1,.23-.31A1.2,1.2,0,0,1,14,15a.38.38,0,0,1,.23.3h0Zm-1.47,0a.26.26,0,0,0,0,.15.47.47,0,0,0,.16.13,1.1,1.1,0,0,0,1,0,.48.48,0,0,0,.16-.14.26.26,0,0,0,0-.15.34.34,0,0,0-.2-.28,1.09,1.09,0,0,0-1,0A.34.34,0,0,0,12.75,15.31Z" transform="translate(-5.61 -1.44)"/><path class="cls-16" d="M12.95,15.5a.3.3,0,0,0,.17.06s.06,0,.13-.12a.59.59,0,0,0,.11-.14s0,0,0,0h-.43l-.1,0v0a.24.24,0,0,0,0,0,.12.12,0,0,0,0,.07h0l0,0h0Zm-.19-.2A.34.34,0,0,1,13,15a1.09,1.09,0,0,1,1,0,.34.34,0,0,1,.2.28.26.26,0,0,1,0,.15.48.48,0,0,1-.16.14,1.1,1.1,0,0,1-1,0,.47.47,0,0,1-.16-.13A.26.26,0,0,1,12.75,15.31Zm1.16-.2h0a.29.29,0,0,0-.15,0,.34.34,0,0,0-.16.1h0a.63.63,0,0,0,.19.06l.23,0h0a0,0,0,0,0,0,0,.12.12,0,0,0,0-.07l0,0h0l-.07,0h0ZM13.56,15H13.4a.07.07,0,0,0,0,.05l.06.1q.07.1.09.1h0l.07-.1.07-.1v0h-.11Zm.36.56,0,0h0l0,0h0s-.06-.07-.19-.11a1.11,1.11,0,0,0-.27-.07h0v0l0,0,.06.09q.1.14.17.14A.21.21,0,0,0,13.93,15.53ZM13.06,15l-.07,0,0,0a.12.12,0,0,0,0,.08.05.05,0,0,0,0,.05.56.56,0,0,0,.24,0,.55.55,0,0,0,.21,0,0,0,0,0,0,0,0s0-.06-.13-.11L13.14,15Zm.35.64h.08q.16,0,.16-.07l0-.05,0-.1q-.08-.14-.13-.14s-.08,0-.13.11a.33.33,0,0,0-.07.16.07.07,0,0,0,0,0A.21.21,0,0,0,13.42,15.65Z" transform="translate(-5.61 -1.44)"/><path class="cls-17" d="M12.95,15.5l.29-.17a.31.31,0,0,0-.19,0l-.19.07a.12.12,0,0,1,0-.07.24.24,0,0,1,0,0v0l.1,0h.43s0,0,0,0a.59.59,0,0,1-.11.14q-.11.12-.13.12A.3.3,0,0,1,12.95,15.5Zm.54-.55a1.21,1.21,0,0,0,0,.15h0l0-.12v0h.11v0l-.07.1-.07.1h0s0,0-.09-.1l-.06-.1a.07.07,0,0,1,0-.05Zm.43.15a.39.39,0,0,0-.17.1h.05l.22,0h0a.12.12,0,0,1,0,.07,0,0,0,0,1,0,0h0l-.23,0a.63.63,0,0,1-.19-.06h0a.34.34,0,0,1,.16-.1.29.29,0,0,1,.15,0Zm.1.34-.1,0a.81.81,0,0,0-.26-.06l.07.06.09.07.11.06a.21.21,0,0,1-.11,0s-.1,0-.17-.14l-.06-.09,0,0v0h0a1.11,1.11,0,0,1,.27.07q.19.07.19.11Zm-1-.43.08,0,.16.09q.13.09.13.11a0,0,0,0,1,0,0,.55.55,0,0,1-.21,0,.56.56,0,0,1-.24,0,.05.05,0,0,1,0-.05.12.12,0,0,1,0-.08h0a1,1,0,0,0,.32.08h0l-.1-.06Zm.44.64h0v0a1,1,0,0,0,0-.25.59.59,0,0,0,0,.2s0,.05,0,.08h0a.21.21,0,0,1-.12,0,.07.07,0,0,1,0,0,.33.33,0,0,1,.07-.16q.07-.11.13-.11s.08,0,.13.14l0,.1,0,.05S13.61,15.64,13.5,15.65Z" transform="translate(-5.61 -1.44)"/><path class="cls-18" d="M12.86,15.42l.19-.07a.31.31,0,0,1,.19,0l-.29.17,0,0h0l0,0h0Zm.71-.46v0l0,.12h0a1.21,1.21,0,0,1,0-.15h.08Zm.35.14h0l.07,0h0l0,0h0l-.22,0h-.05A.39.39,0,0,1,13.92,15.1Zm0,.42-.11-.06-.09-.07-.07-.06a.81.81,0,0,1,.26.06l.1,0h0l0,0h0Zm-1-.44,0,0,.07,0,.16.09.1.06h0A1,1,0,0,1,13,15.1Zm.45.56h0s0-.06,0-.08a.59.59,0,0,1,0-.2,1,1,0,0,1,0,.25v0h-.09Z" transform="translate(-5.61 -1.44)"/><path class="cls-40" d="M12.69,15.34a.31.31,0,0,0,.1.19l0,0,0,0h0l0,0,.08,0,0,0,0,0,.08,0,.08,0h.41l.13,0h0l.06,0h0l.07,0h0l0,0h0l0,0h0l0,0h0a.33.33,0,0,0,.12-.22.76.76,0,0,1,0,.17l0,.11,0,.07a.71.71,0,0,1-.14.16l0,0,0,0h-.06l-.05,0-.15.05h-.4a.76.76,0,0,1-.22-.1h0l0,0h0l0,0-.06-.05-.07-.08,0,0,0,0,0-.06,0-.08A.76.76,0,0,1,12.69,15.34Z" transform="translate(-5.61 -1.44)"/><path class="cls-15" d="M7.92,12.24h0a.28.28,0,0,0,0,.52l1,.58a1,1,0,0,0,.91,0h0a.27.27,0,0,0,0-.52l-1-.58a1,1,0,0,0-.91,0Z" transform="translate(-5.61 -1.44)"/><path class="cls-41" d="M9.79,12.64l-.11,0a.13.13,0,0,1,0,.06.18.18,0,0,1,0,.08l.06,0a.08.08,0,0,1,0,0l0-.1Z" transform="translate(-5.61 -1.44)"/><polygon class="cls-42" points="1.92 9.22 2.22 9.04 2.07 8.96 1.77 9.13 1.85 9.18 1.92 9.22"/><path class="cls-43" d="M9.68,13.16,9.93,13l0,0h0a.41.41,0,0,0,.15-.29l-.3.16a.58.58,0,0,1-.06.19A.32.32,0,0,1,9.68,13.16Z" transform="translate(-5.61 -1.44)"/><polygon class="cls-44" points="4.55 11.14 4.48 11.03 4.17 11.21 4.24 11.32 4.55 11.14"/><path class="cls-45" d="M9.83,12.85l.3-.16v0l0-.1-.3.18Z" transform="translate(-5.61 -1.44)"/><polygon class="cls-46" points="4.07 11.18 4.17 11.21 4.48 11.03 4.38 11.01 4.07 11.18"/><path class="cls-47" d="M9.68,12.62l.31-.18h0a.64.64,0,0,0-.2-.08,1.84,1.84,0,0,1-.66-.27l-.3-.2a1.41,1.41,0,0,1-.5-.54A1.73,1.73,0,0,0,8,10.93a1,1,0,0,1-.21-.45l-.3.18a1,1,0,0,0,.21.46l0,0a1.89,1.89,0,0,1,.23.39,1.42,1.42,0,0,0,.5.54l.3.2a1.82,1.82,0,0,0,.66.27A.7.7,0,0,1,9.68,12.62Z" transform="translate(-5.61 -1.44)"/><path class="cls-48" d="M7.47,10.62l.1.35a3.63,3.63,0,0,0,.29.7,2.31,2.31,0,0,0,.59.72l0,0a2.54,2.54,0,0,0,.67.39.61.61,0,0,0,.6,0,.18.18,0,0,0,0-.08.13.13,0,0,0,0-.06.7.7,0,0,0-.2-.08,1.82,1.82,0,0,1-.66-.27l-.3-.2a1.42,1.42,0,0,1-.5-.54,1.89,1.89,0,0,0-.23-.39l0,0a1,1,0,0,1-.21-.46Z" transform="translate(-5.61 -1.44)"/><path class="cls-49" d="M9.68,13.16a.32.32,0,0,0,.1-.12.58.58,0,0,0,.06-.19.08.08,0,0,0,0,0l-.06,0a.61.61,0,0,1-.6,0,2.54,2.54,0,0,1-.67-.39l0,0a2.31,2.31,0,0,1-.59-.72,3.63,3.63,0,0,1-.29-.7l-.1-.35-.09-.05a1.57,1.57,0,0,1,.08.31,1.52,1.52,0,0,1,0,.38,1.35,1.35,0,0,0,.17.58,2.37,2.37,0,0,0,.48.7,2.76,2.76,0,0,0,.65.49,1.54,1.54,0,0,0,.67.2A.38.38,0,0,0,9.68,13.16Z" transform="translate(-5.61 -1.44)"/><path class="cls-15" d="M10.15,14.5a1.12,1.12,0,0,0,1,0,.31.31,0,0,0,0-.59,1.12,1.12,0,0,0-1,0,.31.31,0,0,0,0,.59Z" transform="translate(-5.61 -1.44)"/><path class="cls-38" d="M10.63,12.78l-.05,0,0,0h0l.06,0h0l0-.15a.68.68,0,0,0-.17-.32l0,0a.48.48,0,0,0-.21-.12l0,.14v0h0q.23,0,.34.24A.1.1,0,0,1,10.63,12.78Z" transform="translate(-5.61 -1.44)"/><path class="cls-50" d="M10.67,14.24V12.88l-.06,0h0l0,0,.05,0a.31.31,0,0,0-.22.14,1.37,1.37,0,0,0-.1.24.41.41,0,0,1-.09.15l-.13.12a.51.51,0,0,0-.1.31.41.41,0,0,0,0,.07.57.57,0,0,0,.17.39A.42.42,0,0,0,10.67,14.24ZM10.58,13a.09.09,0,0,1,0,0,.67.67,0,0,1-.17.33l-.22.3h0s0-.1.1-.18a.42.42,0,0,0,.12-.19.65.65,0,0,1,0-.18.16.16,0,0,1,.17-.13Z" transform="translate(-5.61 -1.44)"/><path class="cls-51" d="M10.67,12.88v1.36q.34.16.53,0a.56.56,0,0,0,.16-.45.48.48,0,0,0-.1-.31l-.13-.13a.41.41,0,0,1-.09-.15,1.66,1.66,0,0,0-.1-.23l-.23,0h0Z" transform="translate(-5.61 -1.44)"/><path class="cls-35" d="M10.71,12.91l1.15-.49h-.51a.79.79,0,0,0-.62.35Z" transform="translate(-5.61 -1.44)"/><path class="cls-29" d="M10.58,13h0a.16.16,0,0,0-.17.13.65.65,0,0,0,0,.18.42.42,0,0,1-.12.19q-.11.12-.1.18h0l.22-.3a.67.67,0,0,0,.17-.33A.09.09,0,0,0,10.58,13Z" transform="translate(-5.61 -1.44)"/><path class="cls-37" d="M11.86,12.42l-1.15.49.23,0a.71.71,0,0,0,.31-.07A1.05,1.05,0,0,0,11.86,12.42Z" transform="translate(-5.61 -1.44)"/><path class="cls-16" d="M7.48,3.07a.34.34,0,0,1-.08.1l-.08.09a.1.1,0,0,0,0,.1.11.11,0,0,0,.09.06h.14a.31.31,0,0,1,.14,0,.18.18,0,0,1,.1.13q0,.09,0,.11a.28.28,0,0,1-.13,0l-.14,0h0a.06.06,0,0,0,0,0,.16.16,0,0,0,0,.06l0,.05.15.11L7.77,4a.19.19,0,0,1,.06.15q0,.08-.08,0l-.14-.1L7.46,4s-.07,0-.08,0,0,.05,0,.11l.11.18.1.18q0,.09,0,.13s-.06,0-.11,0a1.09,1.09,0,0,1-.12-.17l-.12-.17q-.06-.08-.09-.07s0,0,0,.1l.06.19a.77.77,0,0,1,.05.19q0,.1,0,.09s-.08,0-.11-.1L7,4.49H7v0L7,4.27l0-.05,0,0h0l0,0-.06.11h0l0,.07,0,0s-.07,0-.11,0a.18.18,0,0,1,0-.15.36.36,0,0,1,.05-.13L6.71,4a.14.14,0,0,0,0-.11.09.09,0,0,0-.09,0l-.12,0a.25.25,0,0,1-.12,0,.12.12,0,0,1-.11-.08.13.13,0,0,1,0-.13.26.26,0,0,1,.1-.07l.11-.05a.07.07,0,0,0,0-.08.16.16,0,0,0-.08-.07l-.15-.07L6.11,3.3A.21.21,0,0,1,6,3.16q0-.08.05-.08h0l.14,0,.15.06h.05a0,0,0,0,0,0,0,.16.16,0,0,0,0-.06l0,0,0,0L6.25,2.9l-.08-.08-.05-.07,0,0a.14.14,0,0,1,0-.11h0s.05,0,.1,0a.74.74,0,0,1,.14.13l.13.14s.07.06.09,0,0,0,0-.11l-.09-.18a1.17,1.17,0,0,1-.08-.19q0-.09,0-.11s.07,0,.11.07l.11.19.09.19q0,.08.07.08l0,0a.37.37,0,0,0,0-.06s0-.08,0-.17a.49.49,0,0,1,0-.17,0,0,0,0,1,0,0s0,0,.07,0A.14.14,0,0,1,7,2.48a.26.26,0,0,1,0,.08.86.86,0,0,1,0,.18q0,.12,0,.17V3l0,0s0,0,.07,0l.09-.08.1-.07a.12.12,0,0,1,.11.06A.15.15,0,0,1,7.48,3.07Zm-.3.32a.69.69,0,0,0-.25-.26.24.24,0,0,0-.25,0,.25.25,0,0,0-.1.23.69.69,0,0,0,.1.35.69.69,0,0,0,.25.26.24.24,0,0,0,.25,0,.23.23,0,0,0,.11-.23A.7.7,0,0,0,7.18,3.39Z" transform="translate(-5.61 -1.44)"/><path class="cls-52" d="M7.16,3.54,7,3.37q-.11-.13-.22-.07t-.09.31q-.19-.56.18-.45a.36.36,0,0,1,.19.17A.53.53,0,0,1,7.16,3.54Z" transform="translate(-5.61 -1.44)"/><path class="cls-53" d="M7.16,3.54a.53.53,0,0,0-.08-.22.36.36,0,0,0-.19-.17Q6.52,3,6.71,3.6q-.06-.23.09-.31T7,3.37Zm0-.15a.7.7,0,0,1,.11.35A.23.23,0,0,1,7.18,4a.24.24,0,0,1-.25,0,.69.69,0,0,1-.25-.26.69.69,0,0,1-.1-.35.25.25,0,0,1,.1-.23.24.24,0,0,1,.25,0A.69.69,0,0,1,7.18,3.39Z" transform="translate(-5.61 -1.44)"/><path class="cls-16" d="M14.36,7.1a.34.34,0,0,1-.08.1l-.08.09a.1.1,0,0,0,0,.1.11.11,0,0,0,.09.06h.14a.31.31,0,0,1,.14,0,.18.18,0,0,1,.1.13q0,.09,0,.11a.28.28,0,0,1-.13,0l-.14,0h0a.06.06,0,0,0,0,0,.16.16,0,0,0,0,.06l0,.05.15.11.14.12a.19.19,0,0,1,.06.15q0,.08-.08,0l-.14-.1-.15-.11s-.07,0-.08,0,0,.05,0,.11l.11.18.1.18q0,.09,0,.13s-.06,0-.11,0a1.09,1.09,0,0,1-.12-.17l-.12-.17q-.06-.08-.09-.07s0,0,0,.1l.06.19a.78.78,0,0,1,.05.19q0,.1,0,.09s-.08,0-.11-.1l-.06-.15h0v0l-.06-.19,0-.05,0,0h0l0,0-.06.11h0l0,.07,0,0s-.07,0-.11,0a.18.18,0,0,1,0-.15.36.36,0,0,1,.05-.13L13.59,8a.14.14,0,0,0,0-.11.09.09,0,0,0-.09,0l-.12,0a.25.25,0,0,1-.12,0,.12.12,0,0,1-.11-.08.13.13,0,0,1,0-.13.26.26,0,0,1,.1-.07l.11-.05a.07.07,0,0,0,0-.08.16.16,0,0,0-.08-.07l-.15-.07L13,7.33a.21.21,0,0,1-.08-.14q0-.08.05-.08h0l.14,0,.15.06h.05a0,0,0,0,0,0,0,.16.16,0,0,0,0-.06l0,0,0,0-.14-.14-.08-.08L13,6.79l0,0a.14.14,0,0,1,0-.11h0s.05,0,.1,0a.74.74,0,0,1,.14.13l.13.14s.07.06.09,0,0,0,0-.11l-.09-.18a1.16,1.16,0,0,1-.08-.19q0-.09,0-.11s.07,0,.11.07l.11.19.09.19q0,.08.07.08l0,0a.37.37,0,0,0,0-.06s0-.08,0-.17a.49.49,0,0,1,0-.17,0,0,0,0,1,0,0s0,0,.07,0a.14.14,0,0,1,.07.06.26.26,0,0,1,0,.08.86.86,0,0,1,0,.18q0,.12,0,.17V7l0,0s0,0,.07,0L14.13,7l.1-.07a.12.12,0,0,1,.11.06A.15.15,0,0,1,14.36,7.1Zm-.3.32a.69.69,0,0,0-.25-.26.24.24,0,0,0-.25,0,.25.25,0,0,0-.1.23.77.77,0,0,0,.35.61.24.24,0,0,0,.25,0,.23.23,0,0,0,.11-.23A.7.7,0,0,0,14.06,7.42Z" transform="translate(-5.61 -1.44)"/><path class="cls-52" d="M14,7.57l-.13-.18q-.11-.13-.22-.07t-.09.31q-.19-.56.18-.45a.36.36,0,0,1,.19.17A.53.53,0,0,1,14,7.57Z" transform="translate(-5.61 -1.44)"/><path class="cls-53" d="M14,7.57A.53.53,0,0,0,14,7.35a.36.36,0,0,0-.19-.17q-.37-.11-.18.45-.06-.23.09-.31t.22.07Zm0-.15a.7.7,0,0,1,.11.35.23.23,0,0,1-.11.23.24.24,0,0,1-.25,0,.77.77,0,0,1-.35-.61.25.25,0,0,1,.1-.23.24.24,0,0,1,.25,0A.69.69,0,0,1,14.06,7.42Z" transform="translate(-5.61 -1.44)"/><path class="cls-29" d="M10.57,4.76a.09.09,0,0,1,0-.07s0,0,0,0l.12.07.12.08a.07.07,0,0,1,0,.07s0,0,0,0l-.06,0v.72h0q.19-.42.23-.48l.05-.07L11,5a.08.08,0,0,1,0-.07s0,0,0,0a.36.36,0,0,1,.13.07l.13.09a.1.1,0,0,1,0,.07s0,0,0,0l-.08,0h0l-.29.57q.08.23.3,1l.06.17L11.3,7a.08.08,0,0,1,0,.06s0,0,0,0L11.17,7,11,6.92a.09.09,0,0,1,0-.07s0,0,0,0l.06,0-.06-.14q0-.13-.25-.94l-.06.09v.79l.05,0a.07.07,0,0,1,0,.07s0,0,0,0a.36.36,0,0,1-.13-.07l-.13-.09a.1.1,0,0,1,0-.07s0,0,0,0l.08,0q0-.13,0-.49V5.87q0-.08,0-.26V5.17a3.2,3.2,0,0,1,0-.35Zm1.79,1.06a.16.16,0,0,1,0-.07s0,0,0,0a4.68,4.68,0,0,1,.54.31l.26.16a.08.08,0,0,1,.05.06.12.12,0,0,1,0,.08.22.22,0,0,1,0,.08s0,0,0,0l0,0a.24.24,0,0,1,0-.09l-.29-.16,0,1.26v.51l.05,0A.07.07,0,0,1,13,8s0,0,0,0l-.13-.07-.13-.09a.09.09,0,0,1,0-.07s0,0,0,0l.08,0V7.08q0-.08,0-.26V6.38q0-.32,0-.34l-.29-.17a.24.24,0,0,1,0,.09h0l0,0A.25.25,0,0,1,12.36,5.82Zm-.21-.23a.1.1,0,0,1,0,.08v.15s0,0-.05,0,0,0,0,0a.37.37,0,0,1,0-.13l-.35-.21V6.3l.18.11.1.07s0,0,0,0,0,0,0,0l-.11-.05-.16-.1h0v.8l.3.19a.3.3,0,0,1,0-.11s0,0,.05,0a.14.14,0,0,1,.05.06.35.35,0,0,1,0,.09v0s0,0,0,0l-.23-.12-.35-.22a.1.1,0,0,1,0-.07s0,0,0,0l.08,0q0-.15,0-.43h0V6.36q0-.09,0-.27V5.86q0-.36,0-.48l-.08,0a.07.07,0,0,1,0-.06s0,0,0,0l.13.06A5.14,5.14,0,0,1,12.15,5.59ZM9.08,4.1v.3l0,.21q0,.15,0,.24L9,5l.24.14-.06-.38Q9.11,4.5,9.08,4.1Zm.78,1.25,0,0,0,0,.1,0s.08,0,.12-.09a.71.71,0,0,0,.06-.22,1.16,1.16,0,0,0,0-.27.84.84,0,0,0-.06-.24.57.57,0,0,0-.28-.23q0,.23,0,.34ZM9.67,4.25a.09.09,0,0,1,0-.07s0,0,0,0a2.94,2.94,0,0,1,.34.21l.15.13a.59.59,0,0,1,.1.15.81.81,0,0,1,.06.27,1.23,1.23,0,0,1,0,.3.77.77,0,0,1-.08.24.17.17,0,0,1-.14.1l-.1,0q.07.2.23.69l0,.17.08.05a.08.08,0,0,1,0,.06s0,0,0,0l-.13-.06-.13-.08a.08.08,0,0,1,0-.07s0,0,0,0l.06,0,0-.13q-.05-.15-.22-.7v0l0,0v.71l.05,0a.07.07,0,0,1,0,.07s0,0,0,0L9.8,6.22l-.13-.09a.1.1,0,0,1,0-.07s0,0,0,0l.08,0q0-.13,0-.49V5.35q0-.08,0-.26V4.65q0-.33,0-.35ZM9,3.86s0-.05,0-.06h0l0,0,0,.06a1.25,1.25,0,0,1,0,.19l.08.7.05.29,0,.25q.06.41.07.55l0,0a.08.08,0,0,1,0,.06s0,0,0,0l-.13-.06a.42.42,0,0,1-.13-.08.1.1,0,0,1,0-.07s0,0,0,0l.08,0-.07-.6L9,5.07l0,.19q0,.27-.05.32l0,0a.07.07,0,0,1,0,.07s0,0,0,0a.35.35,0,0,1-.13-.07l-.13-.09a.1.1,0,0,1,0-.07s0,0,0,0l.07,0q0-.09.05-.31Zm-.55-.31-.07,0s0,.17,0,.35v.43q0,.19,0,.27V4.8q0,.36,0,.48l.08,0a.08.08,0,0,1,0,.06s0,0,0,0l-.13-.06a.43.43,0,0,1-.13-.08.09.09,0,0,1,0-.07s0,0,0,0l0,0V3.63s0,.14-.06.27a1.61,1.61,0,0,1-.06.27l-.06.23L8,4.5s0,.06-.06,0a.11.11,0,0,1-.06-.08l0-.18L7.82,4q0-.1-.06-.34T7.69,3.3V4.9l.05,0a.07.07,0,0,1,0,.07s0,0,0,0L7.63,5,7.5,4.87a.09.09,0,0,1,0-.07s0,0,0,0l.08,0q0-.13,0-.49V4.1q0-.08,0-.26V3.4q0-.33,0-.35L7.5,3a.09.09,0,0,1,0-.07s0,0,0,0a1,1,0,0,1,.2.12,1.91,1.91,0,0,1,.08.33L8,4.28l.19-.7a.83.83,0,0,1,.08-.24.93.93,0,0,1,.21.11.08.08,0,0,1,0,.06S8.48,3.55,8.47,3.55Z" transform="translate(-5.61 -1.44)"/><path class="cls-16" d="M8.11,15a.34.34,0,0,1-.08.1l-.08.09a.1.1,0,0,0,0,.1.11.11,0,0,0,.09.06h.14a.31.31,0,0,1,.14,0,.18.18,0,0,1,.1.13q0,.09,0,.11a.28.28,0,0,1-.13,0l-.14,0h0a.06.06,0,0,0,0,0,.16.16,0,0,0,0,.06l0,.05.15.11.14.12a.19.19,0,0,1,.06.15q0,.08-.08,0L8.23,16l-.15-.11s-.07,0-.08,0S8,16,8,16l.11.18.1.18q0,.09,0,.13s-.06,0-.11,0A1.09,1.09,0,0,1,8,16.29l-.12-.17q-.06-.08-.09-.07s0,0,0,.1l.06.19a.78.78,0,0,1,.05.19q0,.1,0,.09s-.08,0-.11-.1l-.06-.15h0v0l-.06-.19,0-.05,0,0h0l0,0-.06.11h0l0,.07,0,0s-.07,0-.11,0a.18.18,0,0,1,0-.15A.36.36,0,0,1,7.27,16l.06-.12a.14.14,0,0,0,0-.11.09.09,0,0,0-.09,0l-.12,0a.25.25,0,0,1-.12,0,.12.12,0,0,1-.11-.08.13.13,0,0,1,0-.13.26.26,0,0,1,.1-.07l.11-.05a.07.07,0,0,0,0-.08A.16.16,0,0,0,7,15.32l-.15-.07-.14-.07A.21.21,0,0,1,6.66,15q0-.08.05-.08h0l.14,0,.15.06h.05a0,0,0,0,0,0,0,.16.16,0,0,0,0-.06l0,0,0,0-.14-.14-.08-.08-.05-.07,0,0a.14.14,0,0,1,0-.11h0s.05,0,.1,0a.74.74,0,0,1,.14.13l.13.14s.07.06.09,0,0,0,0-.11l-.09-.18A1.17,1.17,0,0,1,7,14.32q0-.09,0-.11s.07,0,.11.07l.11.19.09.19q0,.08.07.08l0,0a.37.37,0,0,0,0-.06s0-.08,0-.17a.49.49,0,0,1,0-.17,0,0,0,0,1,0,0s0,0,.07,0a.14.14,0,0,1,.07.06.26.26,0,0,1,0,.08.86.86,0,0,1,0,.18q0,.12,0,.17v.06l0,0s0,0,.07,0l.09-.08.1-.07a.12.12,0,0,1,.11.06A.15.15,0,0,1,8.11,15Zm-.3.32A.69.69,0,0,0,7.56,15a.24.24,0,0,0-.25,0,.25.25,0,0,0-.1.23.77.77,0,0,0,.35.61.24.24,0,0,0,.25,0,.23.23,0,0,0,.11-.23A.7.7,0,0,0,7.81,15.28Z" transform="translate(-5.61 -1.44)"/><path class="cls-52" d="M7.79,15.43l-.13-.18q-.11-.13-.22-.07t-.09.31q-.19-.56.18-.45a.36.36,0,0,1,.19.17A.53.53,0,0,1,7.79,15.43Z" transform="translate(-5.61 -1.44)"/><path class="cls-53" d="M7.79,15.43a.53.53,0,0,0-.08-.22A.36.36,0,0,0,7.52,15q-.37-.11-.18.45-.06-.23.09-.31t.22.07Zm0-.15a.7.7,0,0,1,.11.35.23.23,0,0,1-.11.23.24.24,0,0,1-.25,0,.77.77,0,0,1-.35-.61.25.25,0,0,1,.1-.23.24.24,0,0,1,.25,0A.69.69,0,0,1,7.81,15.28Z" transform="translate(-5.61 -1.44)"/><path class="cls-54" d="M7.79,17.84v1a1.08,1.08,0,0,1,.36-.44.7.7,0,0,1-.12.85.52.52,0,0,1-.67,0,.7.7,0,0,1-.12-.85,1.08,1.08,0,0,1,.36.44v-1A.36.36,0,0,0,7.79,17.84Z" transform="translate(-5.61 -1.44)"/><path class="cls-55" d="M8.23,16.45a3.37,3.37,0,0,1,0,.38q0,.12,0,.22a.92.92,0,0,1-.5-.14,1.4,1.4,0,0,1-.4-.3.45.45,0,0,1-.08-.29l.07-.14a.79.79,0,0,1,.4-.34.33.33,0,0,1,.39.18,1.19,1.19,0,0,1,.07.24l-.12.09a.34.34,0,0,1-.19,0,.26.26,0,0,1-.21-.12.14.14,0,0,1,0,0s0,0,.08-.07l.09,0,0,0s-.09,0-.15,0-.1.09-.09.13,0,0,0,.07a.42.42,0,0,0,.21.17.62.62,0,0,0,.34,0Zm0,.93a.61.61,0,0,1-.24.38.56.56,0,0,1-.2.08.36.36,0,0,1-.18,0l-.13-.07a.57.57,0,0,1-.13-.15l0-.08a1.17,1.17,0,0,1-.18-.72.54.54,0,0,1,0-.16l0,0,.12.17a1.45,1.45,0,0,0,.33.32A1,1,0,0,0,8.22,17.38Z" transform="translate(-5.61 -1.44)"/><path class="cls-56" d="M8.2,16.26v0h0l0,.15-.07,0a.62.62,0,0,1-.34,0,.42.42,0,0,1-.21-.17s0-.06,0-.07,0-.08.09-.13.12-.05.15,0l0,0-.09,0q-.08,0-.08.07a.14.14,0,0,0,0,0,.26.26,0,0,0,.21.12.34.34,0,0,0,.19,0Zm.06.79v0a1.69,1.69,0,0,1,0,.27,1,1,0,0,1-.6-.19,1.45,1.45,0,0,1-.33-.32l-.12-.17,0,0a1.61,1.61,0,0,1,.09-.3l0,0a.45.45,0,0,0,.08.29,1.4,1.4,0,0,0,.4.3A.92.92,0,0,0,8.26,17.06Z" transform="translate(-5.61 -1.44)"/><path class="cls-57" d="M8.65,17.94h.18v1.4a1.08,1.08,0,0,1,.36-.44.7.7,0,0,1-.12.85.51.51,0,0,1-.67,0,.7.7,0,0,1-.12-.85,1.08,1.08,0,0,1,.36.44Z" transform="translate(-5.61 -1.44)"/><path class="cls-55" d="M9.05,17.21l0-.05L9,17.2a.69.69,0,0,1-.22.12l.06.07a.77.77,0,0,0,.27-.08,1.17,1.17,0,0,1,0,.18,1.12,1.12,0,0,1-.29.08.36.36,0,0,1-.27,0L8.4,17.4a.47.47,0,0,1,.1-.22A.4.4,0,0,1,8.74,17a.22.22,0,0,1,.24.07A.39.39,0,0,1,9.05,17.21Zm-.65.46a.61.61,0,0,0,.65.09.25.25,0,0,1-.23.18H8.65a.22.22,0,0,1-.18-.11A.86.86,0,0,1,8.4,17.67Z" transform="translate(-5.61 -1.44)"/><path class="cls-56" d="M8.4,17.4l.13.11a.36.36,0,0,0,.27,0,1.12,1.12,0,0,0,.29-.08v0a.6.6,0,0,1,0,.22v0a.61.61,0,0,1-.65-.09,1,1,0,0,1,0-.18h0v0A.53.53,0,0,1,8.4,17.4Zm.65-.2a.5.5,0,0,1,0,.1.77.77,0,0,1-.27.08l-.06-.07A.69.69,0,0,0,9,17.2l.05,0Z" transform="translate(-5.61 -1.44)"/><path class="cls-54" d="M9.66,18.76a.32.32,0,0,0,.18,0v1.09a1.08,1.08,0,0,1,.36-.44.7.7,0,0,1-.12.85.52.52,0,0,1-.67,0,.7.7,0,0,1-.12-.85,1.08,1.08,0,0,1,.36.44Z" transform="translate(-5.61 -1.44)"/><path class="cls-55" d="M10.34,17.94V18a1,1,0,0,1-.1.35l-.1,0a1.17,1.17,0,0,1-.29,0l-.18,0a1.18,1.18,0,0,1-.36-.13.88.88,0,0,1,0-.32l.07,0A1.14,1.14,0,0,0,10.34,17.94Zm0-.22-.13.06a1,1,0,0,1-.91,0,1.1,1.1,0,0,1,.08-.37.25.25,0,0,1,.06-.08.44.44,0,0,1,.53-.09l.05.07a.11.11,0,0,1,0,.1s0,.05,0,.06l0,0a.36.36,0,0,1-.2,0l-.14,0s.06.07.15.12.2,0,.33-.08a.19.19,0,0,0,0-.13l.06.08A.7.7,0,0,1,10.33,17.72Zm-.49,1a.32.32,0,0,1-.18,0,.43.43,0,0,1-.15-.08l-.07-.05.22.06.18,0H10Z" transform="translate(-5.61 -1.44)"/><path class="cls-56" d="M10,17.22a.7.7,0,0,1,.16.11l0,0a.19.19,0,0,1,0,.13q-.19.15-.33.08t-.15-.12l.14,0a.36.36,0,0,0,.2,0l0,0s0,0,0-.06a.11.11,0,0,0,0-.1Zm.38.72a1.14,1.14,0,0,1-1,.05l-.07,0,0-.21a1,1,0,0,0,.91,0l.13-.06Zm-1,.35a1.18,1.18,0,0,0,.36.13l.18,0a1.17,1.17,0,0,0,.29,0l.1,0a.62.62,0,0,1-.18.26L10,18.7H9.83l-.18,0-.22-.06a.89.89,0,0,1-.13-.26Z" transform="translate(-5.61 -1.44)"/><path class="cls-57" d="M10.77,19a.4.4,0,0,0,.18,0v1.41a1.08,1.08,0,0,1,.36-.44.7.7,0,0,1-.12.85.52.52,0,0,1-.67,0,.7.7,0,0,1-.12-.85,1.08,1.08,0,0,1,.36.44Z" transform="translate(-5.61 -1.44)"/><path class="cls-55" d="M11,18.33a.93.93,0,0,0-.31.36l.09.05a.18.18,0,0,0,.21,0,.65.65,0,0,0,.17-.2l0,.15a.69.69,0,0,1-.59.19l-.07,0a.4.4,0,0,1,.13-.47A.32.32,0,0,1,11,18.33Z" transform="translate(-5.61 -1.44)"/><path class="cls-56" d="M11.21,18.66q0,.35-.27.38a.4.4,0,0,1-.18,0l-.09,0a.24.24,0,0,1-.13-.18l.07,0A.69.69,0,0,0,11.21,18.66Zm0-.15a.65.65,0,0,1-.17.2.18.18,0,0,1-.21,0l-.09-.05a.93.93,0,0,1,.31-.36A.44.44,0,0,1,11.17,18.51Z" transform="translate(-5.61 -1.44)"/><path class="cls-54" d="M11.65,20.31a.36.36,0,0,0,.18,0v.77a1.08,1.08,0,0,1,.36-.44.7.7,0,0,1-.12.85.52.52,0,0,1-.67,0,.7.7,0,0,1-.12-.85,1.08,1.08,0,0,1,.36.44Z" transform="translate(-5.61 -1.44)"/><path class="cls-55" d="M11.33,18.81l.07-.14a.79.79,0,0,1,.4-.34.33.33,0,0,1,.39.18,1.19,1.19,0,0,1,.07.24l-.12.09a.34.34,0,0,1-.19,0,.26.26,0,0,1-.21-.12.09.09,0,0,1,0,0s0,0,.08-.07l.09,0,0,0s-.09,0-.15,0-.1.09-.09.13l0,.07a.42.42,0,0,0,.21.17.62.62,0,0,0,.34,0l.07,0a3.37,3.37,0,0,1,0,.38q0,.12,0,.22a.92.92,0,0,1-.5-.14,1.39,1.39,0,0,1-.4-.3A.46.46,0,0,1,11.33,18.81Zm-.12.34,0,0,.12.17a1.48,1.48,0,0,0,.3.3l0,0,.15.09a.93.93,0,0,0,.46.1.61.61,0,0,1-.24.38.53.53,0,0,1-.22.08.36.36,0,0,1-.18,0l-.1-.06a.57.57,0,0,1-.13-.15l0-.08a1.17,1.17,0,0,1-.18-.72A.54.54,0,0,1,11.21,19.15Z" transform="translate(-5.61 -1.44)"/><path class="cls-56" d="M11.21,19.15a1.61,1.61,0,0,1,.09-.3l0,0a.46.46,0,0,0,.09.3,1.39,1.39,0,0,0,.4.3.92.92,0,0,0,.5.14v0a1.69,1.69,0,0,1,0,.27.93.93,0,0,1-.46-.1l-.15-.09,0,0a1.48,1.48,0,0,1-.3-.3l-.12-.17Zm1.07-.21-.07,0a.62.62,0,0,1-.34,0,.42.42,0,0,1-.21-.17l0-.07s0-.08.09-.13.12-.05.15,0l0,0-.09,0q-.08,0-.08.07a.09.09,0,0,0,0,0,.26.26,0,0,0,.21.12.34.34,0,0,0,.19,0l.12-.09v0h0Z" transform="translate(-5.61 -1.44)"/><path class="cls-57" d="M12.73,20.72h.18v.9a1.08,1.08,0,0,1,.36-.44.7.7,0,0,1-.12.85.52.52,0,0,1-.67,0,.7.7,0,0,1-.12-.85,1.08,1.08,0,0,1,.36.44Z" transform="translate(-5.61 -1.44)"/><path class="cls-56" d="M13.15,20h0a.64.64,0,0,1,0,.1.77.77,0,0,1-.27.08l-.06-.07a.69.69,0,0,0,.22-.12l.05,0Zm0,.55a1,1,0,0,1-.25,0h-.18a.45.45,0,0,1-.22-.13,1.05,1.05,0,0,1,0-.18h0v0a.31.31,0,0,1,0-.06l.13.16a.24.24,0,0,0,.1.08.32.32,0,0,0,.18,0,.45.45,0,0,0,.29-.18v0a.6.6,0,0,1,0,.22Z" transform="translate(-5.61 -1.44)"/><path class="cls-55" d="M13.2,20.28a.45.45,0,0,1-.29.18.32.32,0,0,1-.18,0,.24.24,0,0,1-.1-.08l-.13-.16a.51.51,0,0,1,.1-.22.4.4,0,0,1,.24-.16.22.22,0,0,1,.24.07.49.49,0,0,1,.07.12l0-.05-.05,0a.69.69,0,0,1-.22.12l.06.07a.77.77,0,0,0,.27-.08A.93.93,0,0,1,13.2,20.28Zm-.69.18a.45.45,0,0,0,.22.13h.18a1,1,0,0,0,.25,0,.26.26,0,0,1-.25.18h-.18a.21.21,0,0,1-.15-.1A.9.9,0,0,1,12.51,20.46Z" transform="translate(-5.61 -1.44)"/><path class="cls-26" d="M13.67,17.82a.42.42,0,0,1,.22.39v1.65q0,.26-.22.13l-2.81-1.62a.42.42,0,0,1-.22-.39V16.32q0-.26.22-.13Z" transform="translate(-5.61 -1.44)"/><path class="cls-58" d="M10.95,17.41a.54.54,0,0,1-.14-.27.21.21,0,0,1,0-.06h0a.19.19,0,0,1,.11-.2.24.24,0,0,1,.25.08h0l.17.18h0l0,0s0,.07,0,.1l0,0s0,0-.07,0l0,0A.45.45,0,0,0,11,17.1q-.1,0,0,.17l.11.14.11.14a.62.62,0,0,1,.09.13.57.57,0,0,1,.05.15v.06h0q0,.17-.12.2A.29.29,0,0,1,11,18h0l-.14-.16,0,0a.09.09,0,0,1,0-.09l0,0s0,0,.07,0l0,0,.09.11.05,0,.05,0a.06.06,0,0,0,.05-.05.22.22,0,0,0,0-.11l-.11-.15Zm1.24.21s0,0,.05,0l.07,0a.12.12,0,0,1,.05.09v.82a.06.06,0,0,0,0,0l.31.18,0,0a.13.13,0,0,1,0,.05v.08a0,0,0,0,1,0,0h0l-.46-.27,0,0a.12.12,0,0,1,0-.05Zm-.61-.33a.22.22,0,0,1,.2,0,.63.63,0,0,1,.28.49v.73a0,0,0,0,1,0,0h0l-.07,0,0,0a.14.14,0,0,1,0-.05v-.26a.06.06,0,0,0,0,0L11.7,18s0,0,0,0v.26a0,0,0,0,1,0,0h0l-.07,0,0,0a.11.11,0,0,1,0,0v-.74A.22.22,0,0,1,11.58,17.29Zm.2.23a.09.09,0,0,0-.08,0,.09.09,0,0,0,0,.07v.21a.05.05,0,0,0,0,0l.17.1s0,0,0,0v-.21A.24.24,0,0,0,11.78,17.52Zm1.61.73a.15.15,0,0,1,.05.09v.08a0,0,0,0,1,0,0h0l-.31-.18s0,0,0,0v.2a.06.06,0,0,0,0,0l.19.11a.12.12,0,0,1,.05.09v.08s0,0-.05,0l-.19-.11s0,0,0,0v.19a.06.06,0,0,0,0,0l.31.18a.13.13,0,0,1,.05.09v.08s0,0-.06,0l-.45-.26a.1.1,0,0,1-.05-.09V18s0,0,0,0Z" transform="translate(-5.61 -1.44)"/></svg>