<?xml version="1.0" encoding="utf-8"?>
<!-- Generator: Adobe Illustrator 21.1.0, SVG Export Plug-In . SVG Version: 6.00 Build 0)  -->
<svg version="1.1" id="Layer_1" xmlns="http://www.w3.org/2000/svg" xmlns:xlink="http://www.w3.org/1999/xlink" x="0px" y="0px"
	 viewBox="0 0 100 100" enable-background="new 0 0 100 100" xml:space="preserve">
<circle fill-rule="evenodd" clip-rule="evenodd" fill="#8FE8EF" cx="50" cy="50" r="50"/>
<g>
	<g>
		<polygon fill-rule="evenodd" clip-rule="evenodd" fill="#E77E51" points="23.3,55 29.2,58.2 29.2,71.4 23.6,68.5 		"/>
		<polygon fill-rule="evenodd" clip-rule="evenodd" fill="#E99351" points="61.1,26.7 42.8,50.4 18.9,38 37.2,14.3 		"/>
		<polygon fill-rule="evenodd" clip-rule="evenodd" fill="#E25941" points="61.1,26.7 37.2,14.3 42.8,15.2 66.7,27.7 		"/>
		<path fill-rule="evenodd" clip-rule="evenodd" fill="#B972C2" d="M23.3,55l0.4,13.5l-1.5-0.8V54.3L23.3,55z M42.8,78.5v-28
			l18.3-23.7l5.6,0.9V66L42.8,78.5z"/>
		<polygon fill-rule="evenodd" clip-rule="evenodd" fill="#FFC3D3" points="18.9,38 42.8,50.4 42.8,78.5 29.2,71.4 29.2,58.2 
			23.3,55 22.1,54.3 22.1,67.7 18.9,66 		"/>
	</g>
	<g>
		<polygon fill-rule="evenodd" clip-rule="evenodd" fill="#ECBA48" points="30.6,55.7 22.8,59.8 11.1,53.7 18.9,49.6 		"/>
		<polygon fill-rule="evenodd" clip-rule="evenodd" fill="#E57249" points="11.1,53.7 22.8,59.8 30.6,55.7 30.6,57.8 22.8,61.9 
			11.1,55.8 		"/>
	</g>
	<g>
		<polygon fill-rule="evenodd" clip-rule="evenodd" fill="#769CB7" points="36.8,33.4 29.9,30.1 29.9,24.5 36.8,27.6 		"/>
		<polygon fill-rule="evenodd" clip-rule="evenodd" fill="#E46D46" points="36.8,33.4 36.8,27.6 29.9,24.5 35.9,20.7 42.9,24 		"/>
	</g>
	<g>
		<polygon fill-rule="evenodd" clip-rule="evenodd" fill="#769CB7" points="47.4,39.1 40.5,35.7 40.5,30.1 47.4,33.2 		"/>
		<polygon fill-rule="evenodd" clip-rule="evenodd" fill="#E46D46" points="47.4,39.1 47.4,33.2 40.5,30.1 46.5,26.3 53.5,29.7 		
			"/>
	</g>
	<g>
		<path fill-rule="evenodd" clip-rule="evenodd" fill="#F7F7F7" d="M40.5,69.7v-8l-1.9-0.9l-0.8-0.4v9.3l2.8,1.3V69.7z M41.5,73
			l-8.8-4.5l0.2-11.9l8.6,4.5L41.5,73z M34.7,58.8l-1.2-0.6v9.4l3,1.4v-1.2v-8.1L34.7,58.8z"/>
		<path fill-rule="evenodd" clip-rule="evenodd" fill="#BBBBBB" d="M38.6,60.7l0,8.2l1.9,0.8v1.2l-2.8-1.3v-9.3L38.6,60.7z
			 M36.6,67.8V69l-3-1.4v-9.4l1.2,0.6V67L36.6,67.8z"/>
		<path fill-rule="evenodd" clip-rule="evenodd" fill="#93B3BE" d="M40.5,69.7l-1.9-0.8l0-8.2l1.9,0.9V69.7z M36.6,67.8L34.7,67
			v-8.2l1.8,0.9V67.8z"/>
	</g>
	<g>
		<path fill-rule="evenodd" clip-rule="evenodd" fill="#F7F7F7" d="M27.6,44.8v6.3l-5.1-2.6l0.2-6.3L27.6,44.8z M24.6,44.5l-1.2-0.6
			v3.7l3,1.4v-1.2v-2.5L24.6,44.5z"/>
		<polygon fill-rule="evenodd" clip-rule="evenodd" fill="#BBBBBB" points="26.4,47.9 26.4,49.1 23.4,47.7 23.4,43.9 24.6,44.5 
			24.6,47 		"/>
		<polygon fill-rule="evenodd" clip-rule="evenodd" fill="#93B3BE" points="24.6,44.5 26.4,45.4 26.4,47.9 24.6,47 		"/>
	</g>
	<g>
		<path fill-rule="evenodd" clip-rule="evenodd" fill="#F7F7F7" d="M37.4,50.1v6.3l-5.1-2.6l0.2-6.3L37.4,50.1z M34.4,49.8l-1.2-0.6
			V53l3,1.4v-1.2v-2.5L34.4,49.8z"/>
		<polygon fill-rule="evenodd" clip-rule="evenodd" fill="#BBBBBB" points="36.2,53.2 36.2,54.4 33.2,53 33.2,49.3 34.4,49.8 
			34.4,52.4 		"/>
		<polygon fill-rule="evenodd" clip-rule="evenodd" fill="#93B3BE" points="34.4,49.8 36.2,50.7 36.2,53.2 34.4,52.4 		"/>
	</g>
	<g>
		<path fill-rule="evenodd" clip-rule="evenodd" fill="#F7F7F7" d="M57.2,39.8v6.3l5.1-2.6l-0.2-6.3L57.2,39.8z M60.3,39.5l1.2-0.6
			v3.7l-3,1.4v-1.2v-2.5L60.3,39.5z"/>
		<polygon fill-rule="evenodd" clip-rule="evenodd" fill="#BBBBBB" points="58.4,42.9 58.4,44.1 61.4,42.7 61.4,39 60.3,39.5 
			60.3,42.1 		"/>
		<polygon fill-rule="evenodd" clip-rule="evenodd" fill="#93B3BE" points="60.3,39.5 58.4,40.4 58.4,42.9 60.3,42.1 		"/>
	</g>
</g>
<g>
	<g>
		<polygon fill-rule="evenodd" clip-rule="evenodd" fill="#593F2F" points="63.4,78.1 61,77.5 61.5,73.9 59.5,69.8 57.3,65.6 
			58.2,65.2 60.8,68.3 63.1,65.2 64.1,65.5 61.7,68.9 61.3,69.2 61.9,69.8 61.9,69.8 63.6,72.7 67.1,69.5 67.6,70.9 63.5,74.7 		"/>
		<path fill-rule="evenodd" clip-rule="evenodd" fill="#32211B" d="M64.1,65.5l0.4,0.1l-2.6,4.1l-0.6-0.6l0.4-0.3L64.1,65.5z
			 M63.4,78.1l0.1-3.4l4.2-3.8l0.1,0.3l-2.5,3.3l0.2,3L63.4,78.1z"/>
	</g>
	<g>
		<path fill-rule="evenodd" clip-rule="evenodd" fill="#4B8C2F" d="M65.1,65.8l-3.2-1.3l3.2-5.2V65.8z M54.8,66L49,59.1l5.8,2.3V66z
			 M54.9,54.9L50.1,52l7.5-4.7L54.9,54.9z"/>
		<path fill-rule="evenodd" clip-rule="evenodd" fill="#376622" d="M54.9,54.9l-0.1,6.6l10.3-2.2l5-3.7l-5,10.3L54.8,66v-4.6
			L49,59.1l1.1-7.2L54.9,54.9z M65.1,65.8v-6.5l-3.2,5.2L65.1,65.8z"/>
		<polygon fill-rule="evenodd" clip-rule="evenodd" fill="#8CBB44" points="54.9,54.9 65.1,59.2 57.6,47.2 65.6,48.1 70.1,55.5 
			65.1,59.2 54.8,61.4 		"/>
		<polygon fill-rule="evenodd" clip-rule="evenodd" fill="#CCE492" points="65.1,59.2 54.9,54.9 57.6,47.2 		"/>
	</g>
	<g>
		<path fill-rule="evenodd" clip-rule="evenodd" fill="#4B8C2F" d="M74.3,67.1v5l-2.5-1L74.3,67.1z M66.5,72.2L62,67l4.4,1.8V72.2z
			 M62.9,61.5l5.7-3.6l-2,5.8L62.9,61.5z"/>
		<path fill-rule="evenodd" clip-rule="evenodd" fill="#376622" d="M78.2,64.2L74.3,72l-7.9,0.2v-3.5l7.9-1.7L78.2,64.2z M74.3,72
			v-5l-2.5,4L74.3,72z M62.9,61.5l3.7,2.2l-0.1,5L62,67L62.9,61.5z"/>
		<path fill-rule="evenodd" clip-rule="evenodd" fill="#8CBB44" d="M78.2,64.2l-3.8,2.9l-5.8-9.2l6.1,0.7L78.2,64.2z M66.5,63.7
			l7.8,3.3l-7.9,1.7L66.5,63.7z"/>
		<polygon fill-rule="evenodd" clip-rule="evenodd" fill="#CCE492" points="74.3,67.1 66.5,63.7 68.6,57.9 		"/>
	</g>
</g>
</svg>
