<?xml version="1.0" encoding="utf-8"?>
<!-- Generator: Adobe Illustrator 21.1.0, SVG Export Plug-In . SVG Version: 6.00 Build 0)  -->
<svg version="1.1" id="Layer_1" xmlns="http://www.w3.org/2000/svg" xmlns:xlink="http://www.w3.org/1999/xlink" x="0px" y="0px"
	 viewBox="0 0 15 15" enable-background="new 0 0 15 15" xml:space="preserve">
<g>
	<g>
		<polygon fill-rule="evenodd" clip-rule="evenodd" fill="#E85E5D" points="10.1,13.1 9.1,13.6 9.1,10.8 10.1,10.2 		"/>
		<polygon fill-rule="evenodd" clip-rule="evenodd" fill="#EAC62D" points="6.8,15 3.1,12.8 3.1,3.8 6.8,6.1 		"/>
		<polygon fill-rule="evenodd" clip-rule="evenodd" fill="#E6AB30" points="11.9,3 11.9,11.9 10.1,13.1 10.1,10.2 9.1,10.8 
			9.1,13.6 6.8,15 6.8,6.1 9.4,3.3 		"/>
		<polygon fill-rule="evenodd" clip-rule="evenodd" fill="#7BA191" points="5.6,1.1 9.4,3.3 6.8,6.1 3.1,3.8 		"/>
		<polygon fill-rule="evenodd" clip-rule="evenodd" fill="#628090" points="9.4,3.3 5.6,1.1 8.2,0.8 11.9,3 		"/>
	</g>
	<g>
		<path fill-rule="evenodd" clip-rule="evenodd" fill="#57908B" d="M7.4,8.2V7.1V6.5l0.3-0.2l0.4-0.3l0.3-0.2v0.5v1.1L8.1,7.8L7.7,8
			L7.4,8.2z M7.7,6.4v0.5l0.4-0.3V6.1v0.5L7.7,6.9V6.4z M8.1,6.6l0.3-0.2L8.1,6.6z M7.4,7.1l0.3-0.2L7.4,7.1z M7.7,8V6.9V8z
			 M8.1,7.8V6.6V7.8z"/>
		<polygon fill-rule="evenodd" clip-rule="evenodd" fill="#498E83" points="8.1,9.6 8.1,8.6 7.4,8.2 7.7,8 8.1,7.8 8.4,7.6 9.1,8 
			9.1,9.1 		"/>
		<polygon fill-rule="evenodd" clip-rule="evenodd" fill="#A5CBC4" points="8.1,9.6 7.4,9.2 7.4,8.2 8.1,8.6 		"/>
		<g>
			<path fill="#FFFFFF" d="M7.4,8.2V7.1V6.5c0,0,0,0,0-0.1l0,0l0.3-0.2L8.1,6l0.3-0.2c0,0,0,0,0,0l0,0c0,0,0,0,0,0l0,0v0.5v1.1
				c0,0,0,0.1,0,0.1l0,0c0,0,0,0,0-0.1l0,0V6.6L8.2,6.7v1.1c0,0,0,0.1,0,0.1l0,0c0,0,0,0,0-0.1l0,0V6.7L7.7,6.9V8c0,0,0,0.1,0,0.1
				l0,0c0,0,0,0,0-0.1l0,0V7L7.5,7.1L7.4,8.2L7.4,8.2C7.5,8.2,7.4,8.3,7.4,8.2L7.4,8.2C7.4,8.3,7.4,8.2,7.4,8.2L7.4,8.2z M7.5,6.6V7
				l0.2-0.1V6.5L7.5,6.6L7.5,6.6z M7.7,6.8l0.3-0.2l0-0.4L7.7,6.4V6.8L7.7,6.8z M8.2,6.5l0.2-0.1V6L8.2,6.1V6.5L8.2,6.5z"/>
		</g>
	</g>
	<g>
		<path fill-rule="evenodd" clip-rule="evenodd" fill="#57908B" d="M10.3,10.5V9.4V8.8l0.3-0.2L11,8.4l0.3-0.2v0.5v1.1L11,10.1
			l-0.4,0.3L10.3,10.5z M10.5,8.7v0.5L11,9V8.4V9l-0.4,0.3V8.7z M11,9l0.3-0.2L11,9z M10.3,9.4l0.3-0.2L10.3,9.4z M10.5,10.4V9.2
			V10.4z M11,10.1V9V10.1z"/>
		<polygon fill-rule="evenodd" clip-rule="evenodd" fill="#A5CBC4" points="11,12 10.3,11.5 10.3,10.5 11,11 		"/>
		<polygon fill-rule="evenodd" clip-rule="evenodd" fill="#498E83" points="11,12 11,11 10.3,10.5 10.5,10.4 11,10.1 11.3,9.9 
			12,10.4 12,11.4 		"/>
		<g>
			<path fill="#FFFFFF" d="M10.2,10.5V9.4V8.8c0,0,0,0,0-0.1l0,0l0.3-0.2c0,0,0,0,0,0l0,0L11,8.4l0.3-0.2c0,0,0,0,0,0l0,0
				c0,0,0,0,0,0l0,0v0.5l0,1.1c0,0,0,0.1,0,0.1l0,0c0,0,0,0,0-0.1l0,0V8.9L11,9v1.1c0,0,0,0.1,0,0.1l0,0c0,0,0,0,0-0.1l0,0V9
				l-0.3,0.2v1.1c0,0,0,0.1,0,0.1l0,0c0,0,0,0,0-0.1l0,0V9.3l-0.2,0.1L10.2,10.5C10.3,10.6,10.3,10.6,10.2,10.5L10.2,10.5
				C10.2,10.6,10.2,10.6,10.2,10.5L10.2,10.5z M10.3,8.9v0.4l0.2-0.1V8.8L10.3,8.9L10.3,8.9z M10.6,9.1l0.3-0.2V8.5l-0.3,0.2V9.1
				L10.6,9.1z M11,8.9l0.2-0.1l0-0.4L11,8.5V8.9L11,8.9z"/>
		</g>
	</g>
	<g>
		<polygon fill-rule="evenodd" clip-rule="evenodd" fill="#46A941" points="10.4,10.1 11,10.5 11,10.8 10.4,10.5 		"/>
		<polygon fill-rule="evenodd" clip-rule="evenodd" fill="#C4E34F" points="11,10.5 10.4,10.1 11.2,9.6 11.8,10 		"/>
		<polygon fill-rule="evenodd" clip-rule="evenodd" fill="#93B93C" points="11.8,10 11.8,10.3 11,10.8 11,10.5 		"/>
	</g>
	<g>
		<polygon fill-rule="evenodd" clip-rule="evenodd" fill="#A5CBC4" points="9.8,10.9 10.8,10.3 10.8,10.6 9.8,11.2 		"/>
		<path fill-rule="evenodd" clip-rule="evenodd" fill="#498E83" d="M9,9.9c0.3,0.2,0.6,0.5,0.7,1v0.3L9,10.8V9.9z"/>
		<path fill-rule="evenodd" clip-rule="evenodd" fill="#C4DDD8" d="M10.8,10.3l-1,0.6C9.6,10.4,9.4,10,9,9.9l1-0.6
			C10.4,9.4,10.6,9.8,10.8,10.3z"/>
	</g>
	<g>
		<path fill-rule="evenodd" clip-rule="evenodd" fill="#57908B" d="M10.3,6.4V5.3V4.7l0.3-0.2L11,4.3l0.3-0.2v0.5v1.1L11,6l-0.4,0.3
			L10.3,6.4z M11,4.3v0.5l0.3-0.2L11,4.9V4.3z M10.6,4.6v0.5L11,4.9l-0.4,0.3V4.6z M10.3,5.3l0.3-0.2L10.3,5.3z M11,6V4.9V6z
			 M10.6,6.3V5.1V6.3z"/>
		<polygon fill-rule="evenodd" clip-rule="evenodd" fill="#498E83" points="11,7.9 11,6.9 10.3,6.4 10.6,6.3 11,6 11.3,5.8 12,6.3 
			12,7.3 		"/>
		<polygon fill-rule="evenodd" clip-rule="evenodd" fill="#A5CBC4" points="11,7.9 10.3,7.4 10.3,6.4 11,6.9 		"/>
		<g>
			<path fill="#FFFFFF" d="M10.2,6.4V5.3V4.7c0,0,0,0,0-0.1l0,0l0.3-0.2c0,0,0,0,0,0l0,0L11,4.3c0,0,0,0,0,0l0,0l0.3-0.2
				c0,0,0,0,0,0l0,0c0,0,0,0,0,0l0,0v0.5l0,1.1c0,0,0,0.1,0,0.1l0,0c0,0,0,0,0-0.1l0,0V4.8L11,4.9V6c0,0,0,0.1,0,0.1l0,0
				c0,0,0,0,0-0.1l0,0V4.9l-0.3,0.2v1.1c0,0,0,0.1,0,0.1l0,0c0,0,0,0,0-0.1l0,0V5.2l-0.2,0.1L10.2,6.4L10.2,6.4
				C10.3,6.5,10.3,6.5,10.2,6.4L10.2,6.4C10.2,6.5,10.2,6.5,10.2,6.4L10.2,6.4z M10.3,4.8v0.4l0.2-0.1V4.7L10.3,4.8L10.3,4.8z
				 M10.6,5l0.3-0.2V4.4l-0.3,0.2V5L10.6,5z M11,4.8l0.2-0.1V4.2L11,4.4L11,4.8L11,4.8z"/>
		</g>
	</g>
	<g>
		<polygon fill-rule="evenodd" clip-rule="evenodd" fill="#46A941" points="11,6.4 11,6.7 10.5,6.4 10.5,6 		"/>
		<polygon fill-rule="evenodd" clip-rule="evenodd" fill="#C4E34F" points="11.8,5.9 11,6.4 10.5,6 11.2,5.5 		"/>
		<polygon fill-rule="evenodd" clip-rule="evenodd" fill="#93B93C" points="11,6.4 11.8,5.9 11.8,6.2 11,6.7 		"/>
	</g>
	<g>
		<polygon fill-rule="evenodd" clip-rule="evenodd" fill="#46A941" points="7.6,7.8 8.1,8.1 8.1,8.5 7.6,8.1 		"/>
		<polygon fill-rule="evenodd" clip-rule="evenodd" fill="#C4E34F" points="8.1,8.1 7.6,7.8 8.3,7.3 8.9,7.6 		"/>
		<polygon fill-rule="evenodd" clip-rule="evenodd" fill="#93B93C" points="8.9,7.6 8.9,8 8.1,8.5 8.1,8.1 		"/>
	</g>
	<g>
		<path fill-rule="evenodd" clip-rule="evenodd" fill="#57908B" d="M7.4,12.2V11v-0.5l0.3-0.2l0.4-0.3l0.3-0.2v0.5v1.1l-0.3,0.2
			L7.7,12L7.4,12.2z M8.1,10.1v0.5l0.3-0.2l-0.3,0.2V10.1z M7.7,10.3v0.5l0.4-0.3l-0.4,0.3V10.3z M7.4,11l0.3-0.2L7.4,11z M8.1,11.8
			v-1.1V11.8z M7.7,12v-1.1V12z"/>
		<polygon fill-rule="evenodd" clip-rule="evenodd" fill="#A5CBC4" points="8.1,13.6 7.4,13.2 7.4,12.2 8.1,12.6 		"/>
		<polygon fill-rule="evenodd" clip-rule="evenodd" fill="#498E83" points="8.1,13.6 8.1,12.6 7.4,12.2 7.7,12 8.1,11.8 8.4,11.6 
			9.1,12 9.1,13 		"/>
		<g>
			<path fill="#FFFFFF" d="M7.4,12.2V11v-0.5c0,0,0,0,0-0.1l0,0l0.3-0.2c0,0,0,0,0,0l0,0L8.1,10c0,0,0,0,0,0l0,0l0.3-0.2
				c0,0,0,0,0,0l0,0c0,0,0,0,0,0l0,0v0.5v1.1c0,0,0,0.1,0,0.1l0,0c0,0,0,0,0-0.1l0,0v-1.1l-0.2,0.1v1.1c0,0,0,0.1,0,0.1l0,0
				c0,0,0,0,0-0.1l0,0v-1.1l-0.3,0.2V12c0,0,0,0.1,0,0.1l0,0c0,0,0,0,0-0.1l0,0V11l-0.2,0.1L7.4,12.2L7.4,12.2
				C7.5,12.2,7.4,12.2,7.4,12.2L7.4,12.2C7.4,12.2,7.4,12.2,7.4,12.2L7.4,12.2z M7.5,10.5v0.4l0.2-0.1v-0.4L7.5,10.5L7.5,10.5z
				 M7.7,10.8l0.3-0.2v-0.4l-0.3,0.2V10.8L7.7,10.8z M8.2,10.5l0.2-0.1V10l-0.2,0.1V10.5L8.2,10.5z"/>
		</g>
	</g>
	<g>
		<polygon fill-rule="evenodd" clip-rule="evenodd" fill="#46A941" points="8.2,12.2 8.2,12.5 7.6,12.2 7.6,11.8 		"/>
		<polygon fill-rule="evenodd" clip-rule="evenodd" fill="#C4E34F" points="8.9,11.7 8.2,12.2 7.6,11.8 8.4,11.3 		"/>
		<polygon fill-rule="evenodd" clip-rule="evenodd" fill="#93B93C" points="8.2,12.2 8.9,11.7 8.9,12 8.2,12.5 		"/>
	</g>
	<g>
		<path fill-rule="evenodd" clip-rule="evenodd" fill="#3E6460" d="M4,7L3.7,6.9V5.7V5.2L4,5.3v0.5V5.3l0.4,0.3l0.3,0.2v0.5v1.1
			L4.5,7.3V6.1L4,5.9V7V5.9l0.4,0.3v1.1L4,7z M4.5,5.6v0.5l0.3,0.2L4.5,6.1V5.6z M3.7,5.7L4,5.9L3.7,5.7z"/>
		<g>
			<path fill="#FFFFFF" d="M4.7,7.5L4.4,7.3c0,0,0,0,0,0l0,0L4,7.1c0,0,0,0,0,0l0,0L3.7,6.9c0,0,0,0,0-0.1l0,0l0-1.1c0,0,0,0,0,0
				l0,0V5.2c0,0,0,0,0,0l0,0c0,0,0,0,0,0l0,0L4,5.3v0l0.4,0.3c0,0,0,0,0,0l0,0l0.3,0.2c0,0,0,0,0,0.1l0,0v0.5L4.7,7.5
				C4.8,7.5,4.8,7.5,4.7,7.5L4.7,7.5C4.8,7.5,4.7,7.5,4.7,7.5L4.7,7.5C4.7,7.5,4.7,7.5,4.7,7.5L4.7,7.5z M4.7,7.4v-1L4.5,6.2v1
				L4.7,7.4L4.7,7.4z M4.1,7l0.3,0.2v-1L4.1,6V7L4.1,7z M3.8,6.8L4,6.9v-1L3.8,5.8L3.8,6.8L3.8,6.8z M4.5,6.1l0.2,0.1V5.8L4.5,5.7
				V6.1L4.5,6.1z M4.4,6V5.6L4.1,5.4l0,0.4L4.4,6L4.4,6z M4,5.8V5.4L3.8,5.3v0.4L4,5.8L4,5.8z"/>
		</g>
	</g>
	<g>
		<polygon fill-rule="evenodd" clip-rule="evenodd" fill="#3E6460" points="6.2,7.2 6.2,8.3 5.9,8.1 5.9,7 5.5,6.7 5.5,7.9 5.5,6.7 
			5.9,7 5.9,8.1 5.5,7.9 5.2,7.7 5.2,6.6 5.5,6.7 5.5,6.2 5.5,6.7 5.2,6.6 5.2,6 5.5,6.2 5.9,6.5 5.9,7 6.2,7.2 5.9,7 5.9,6.5 
			6.2,6.6 		"/>
		<g>
			<path fill="#FFFFFF" d="M6.2,8.4L5.9,8.2c0,0,0,0,0,0l0,0L5.5,7.9c0,0,0,0,0,0l0,0c0,0,0,0,0,0l0,0L5.2,7.8c0,0,0,0,0-0.1l0,0
				V6.6V6c0,0,0,0,0,0l0,0c0,0,0,0,0,0l0,0l0.3,0.2v0v0c0,0,0,0,0,0l0,0L6,6.4c0,0,0,0,0,0l0,0l0.3,0.2c0,0,0,0,0,0.1l0,0v0.5
				L6.2,8.4C6.3,8.3,6.3,8.4,6.2,8.4L6.2,8.4C6.2,8.4,6.2,8.4,6.2,8.4L6.2,8.4C6.2,8.4,6.2,8.4,6.2,8.4L6.2,8.4z M6.2,8.2v-1L6,7.1
				v1L6.2,8.2L6.2,8.2z M5.6,7.9l0.3,0.2l0-1L5.6,6.8V7.9L5.6,7.9z M5.3,7.7l0.2,0.1v-1L5.3,6.7V7.7L5.3,7.7z M6,7l0.2,0.1V6.7
				L6,6.6L6,7L6,7z M5.9,6.9V6.5L5.6,6.3v0.4L5.9,6.9L5.9,6.9z M5.3,6.5l0.2,0.1V6.2L5.3,6.1V6.5L5.3,6.5z M5.9,6.5L5.9,6.5L5.9,6.5
				L5.9,6.5z"/>
		</g>
	</g>
	<g>
		<polygon fill-rule="evenodd" clip-rule="evenodd" fill="#3E6460" points="4.7,10.1 4.7,11.3 4.5,11.1 4.5,9.9 4,9.7 4,10.8 4,9.7 
			4.5,9.9 4.5,11.1 4,10.8 3.7,10.7 3.7,9.5 4,9.7 4,9.2 4,9.7 3.7,9.5 3.7,9 4,9.2 4.5,9.4 4.5,9.9 4.7,10.1 4.5,9.9 4.5,9.4 
			4.7,9.6 		"/>
		<g>
			<path fill="#FFFFFF" d="M4.7,11.3l-0.3-0.2c0,0,0,0,0,0l0,0L4,10.9c0,0,0,0,0,0l0,0l-0.3-0.2c0,0,0,0,0-0.1l0,0l0-1.1
				c0,0,0,0,0,0l0,0V9c0,0,0,0,0,0l0,0c0,0,0,0,0,0l0,0L4,9.1l0,0l0,0c0,0,0,0,0,0l0,0l0.4,0.3c0,0,0,0,0,0l0,0l0.3,0.2
				c0,0,0,0,0,0.1l0,0v0.5L4.7,11.3C4.8,11.3,4.8,11.3,4.7,11.3L4.7,11.3C4.8,11.3,4.7,11.3,4.7,11.3L4.7,11.3
				C4.7,11.3,4.7,11.3,4.7,11.3L4.7,11.3z M4.7,11.2v-1L4.5,10v1L4.7,11.2L4.7,11.2z M4.1,10.8L4.4,11v-1L4.1,9.8V10.8L4.1,10.8z
				 M3.8,10.6L4,10.7v-1L3.8,9.6L3.8,10.6L3.8,10.6z M4.5,9.9L4.7,10V9.6L4.5,9.5V9.9L4.5,9.9z M4.4,9.9V9.4L4.1,9.2v0.4L4.4,9.9
				L4.4,9.9z M3.8,9.5L4,9.6V9.2L3.8,9.1V9.5L3.8,9.5z M4.4,9.5L4.4,9.5L4.4,9.5L4.4,9.5z"/>
		</g>
	</g>
	<g>
		<path fill-rule="evenodd" clip-rule="evenodd" fill="#3E6460" d="M5.5,11.7l-0.3-0.2v-1.1V9.9L5.5,10v0.5V10l0.4,0.3l0.3,0.2V11
			v1.1L5.9,12v-1.1l-0.4-0.3V11.7v-1.1l0.4,0.3V12L5.5,11.7z M5.9,10.3v0.5L6.2,11l-0.3-0.2V10.3z M5.2,10.4l0.3,0.2L5.2,10.4z"/>
		<g>
			<path fill="#FFFFFF" d="M6.2,12.2L5.9,12c0,0,0,0,0,0l0,0l-0.4-0.3v0l0,0c0,0,0,0,0,0l0,0l-0.3-0.2c0,0,0,0,0-0.1l0,0v-1.1
				c0,0,0,0,0,0l0,0V9.9c0,0,0,0,0,0l0,0c0,0,0,0,0,0l0,0L5.5,10c0,0,0,0,0,0l0,0L6,10.2l0.3,0.2c0,0,0,0,0,0.1l0,0V11L6.2,12.2
				C6.3,12.1,6.3,12.2,6.2,12.2L6.2,12.2C6.2,12.2,6.2,12.2,6.2,12.2L6.2,12.2C6.2,12.2,6.2,12.2,6.2,12.2L6.2,12.2z M6.2,12v-1
				L6,10.9v1L6.2,12L6.2,12z M5.6,11.7l0.3,0.2l0-1l-0.3-0.2V11.7L5.6,11.7z M5.3,11.5l0.2,0.1v-1l-0.2-0.1V11.5L5.3,11.5z M6,10.8
				l0.2,0.1v-0.4L6,10.4L6,10.8L6,10.8z M5.9,10.7v-0.4l-0.3-0.2v0.4L5.9,10.7L5.9,10.7z M5.5,10.5v-0.4L5.3,9.9l0,0.4L5.5,10.5
				L5.5,10.5z"/>
		</g>
	</g>
</g>
</svg>
