<?xml version="1.0" encoding="utf-8"?>
<!-- Generator: Adobe Illustrator 21.1.0, SVG Export Plug-In . SVG Version: 6.00 Build 0)  -->
<svg version="1.1" id="Layer_1" xmlns="http://www.w3.org/2000/svg" xmlns:xlink="http://www.w3.org/1999/xlink" x="0px" y="0px"
	 viewBox="0 0 100 100" enable-background="new 0 0 100 100" xml:space="preserve">
<g>
	<circle fill="#1CC61C" cx="15" cy="15" r="15"/>
	<g>
		<g>
			<path fill="#3E6460" d="M7.7,14.6l1.7,0.9v2.4L7.7,17V14.6z M12.8,16.9v-2.3l2-1.1v2.5L12.8,16.9z"/>
			<polygon fill="#BC3C25" points="10.4,12.9 4.1,9.7 7.3,6.1 13.5,9.3 			"/>
			<polygon fill="#791A0F" points="13.5,9.3 7.3,6.1 10.4,6.4 16.6,9.7 			"/>
			<polygon fill="#E45D4D" points="4.1,9.7 10.4,12.9 10.4,20.3 7.7,18.9 7.7,17 9.4,17.9 9.4,15.5 7.7,14.6 5.6,13.6 5.6,17.8 
				4.1,17 			"/>
			<path fill="#CE2032" d="M10.4,12.9l3.1-3.6l3.1,0.4V17l-6.2,3.3V12.9z M12.8,16.9l2-1v-2.5l-2,1.1V16.9z"/>
			<polygon fill="#EDBC4E" points="5.6,17.8 5.6,13.6 7.7,14.6 7.7,17 7.7,18.9 			"/>
		</g>
	</g>
	<g>
		<g>
			<polygon fill="#87C4BB" points="13.2,12.6 19.4,15.8 19.4,23.2 16.7,21.8 16.7,19.9 18.5,20.8 18.5,18.4 16.7,17.5 14.6,16.5 
				14.6,20.7 13.2,19.9 			"/>
			<path fill="#7AA5B8" d="M19.4,15.8l3.1-3.6l3.1,0.4v7.3l-6.2,3.2V15.8z M21.8,19.7l2-1v-2.5l-2,1.1V19.7z"/>
			<polygon fill="#E7537A" points="14.6,20.7 14.6,16.5 16.7,17.5 16.7,19.9 16.7,21.8 			"/>
			<path fill="#3E6460" d="M16.7,17.5l1.7,0.9v2.4l-1.7-0.9V17.5z M21.8,19.7v-2.3l2-1.1v2.5L21.8,19.7z"/>
			<polygon fill="#ECCD3A" points="19.4,15.8 13.2,12.6 16.3,9 22.5,12.2 			"/>
			<polygon fill="#E6A333" points="22.5,12.2 16.3,9 19.4,9.3 25.6,12.6 			"/>
		</g>
	</g>
</g>
</svg>
