<?xml version="1.0" encoding="utf-8"?>
<!-- Generator: Adobe Illustrator 21.1.0, SVG Export Plug-In . SVG Version: 6.00 Build 0)  -->
<svg version="1.1" id="Layer_1" xmlns="http://www.w3.org/2000/svg" xmlns:xlink="http://www.w3.org/1999/xlink" x="0px" y="0px"
	 viewBox="0 0 100 100" enable-background="new 0 0 100 100" xml:space="preserve">
<g>
	<circle fill="#1CC61C" cx="4" cy="4" r="4"/>
	<g>
		<g>
			<path fill="#3E6460" d="M2.1,3.9l0.4,0.2v0.6L2.1,4.5V3.9z M3.4,4.5V3.9l0.5-0.3v0.7L3.4,4.5z"/>
			<polygon fill="#BC3C25" points="2.8,3.4 1.1,2.6 1.9,1.6 3.6,2.5 			"/>
			<polygon fill="#791A0F" points="3.6,2.5 1.9,1.6 2.8,1.7 4.4,2.6 			"/>
			<polygon fill="#E45D4D" points="1.1,2.6 2.8,3.4 2.8,5.4 2.1,5 2.1,4.5 2.5,4.8 2.5,4.1 2.1,3.9 1.5,3.6 1.5,4.7 1.1,4.5 			"/>
			<path fill="#CE2032" d="M2.8,3.4l0.8-1l0.8,0.1v2L2.8,5.4V3.4z M3.4,4.5l0.5-0.3V3.6L3.4,3.9V4.5z"/>
			<polygon fill="#EDBC4E" points="1.5,4.7 1.5,3.6 2.1,3.9 2.1,4.5 2.1,5 			"/>
		</g>
	</g>
	<g>
		<g>
			<polygon fill="#87C4BB" points="3.5,3.4 5.2,4.2 5.2,6.2 4.5,5.8 4.5,5.3 4.9,5.5 4.9,4.9 4.5,4.7 3.9,4.4 3.9,5.5 3.5,5.3 			
				"/>
			<path fill="#7AA5B8" d="M5.2,4.2l0.8-1l0.8,0.1v2L5.2,6.2V4.2z M5.8,5.3L6.3,5V4.3L5.8,4.6V5.3z"/>
			<polygon fill="#E7537A" points="3.9,5.5 3.9,4.4 4.5,4.7 4.5,5.3 4.5,5.8 			"/>
			<path fill="#3E6460" d="M4.5,4.7l0.4,0.2v0.6L4.5,5.3V4.7z M5.8,5.3V4.6l0.5-0.3V5L5.8,5.3z"/>
			<polygon fill="#ECCD3A" points="5.2,4.2 3.5,3.4 4.3,2.4 6,3.3 			"/>
			<polygon fill="#E6A333" points="6,3.3 4.3,2.4 5.2,2.5 6.8,3.4 			"/>
		</g>
	</g>
</g>
</svg>
