<?xml version="1.0" encoding="utf-8"?>
<!-- Generator: Adobe Illustrator 21.1.0, SVG Export Plug-In . SVG Version: 6.00 Build 0)  -->
<svg version="1.1" id="Layer_1" xmlns="http://www.w3.org/2000/svg" xmlns:xlink="http://www.w3.org/1999/xlink" x="0px" y="0px"
	 viewBox="0 0 100 100" enable-background="new 0 0 100 100" xml:space="preserve">
<circle fill="#1CC61C" cx="50" cy="50" r="50"/>
<g>
	<g>
		<path fill="#3E6460" d="M25.7,48.8l5.6,2.9v7.9l-5.6-2.9V48.8z M42.5,56.2v-7.8l6.6-3.8V53L42.5,56.2z"/>
		<polygon fill="#BC3C25" points="34.6,43.1 13.7,32.3 24.2,20.3 45,31.1 		"/>
		<polygon fill="#791A0F" points="45,31.1 24.2,20.3 34.6,21.5 55.4,32.3 		"/>
		<polygon fill="#E45D4D" points="13.7,32.3 34.6,43.1 34.6,67.6 25.7,63 25.7,56.7 31.4,59.6 31.4,51.6 25.7,48.8 18.7,45.3 
			18.7,59.3 13.7,56.7 		"/>
		<path fill="#CE2032" d="M34.6,43.1l10.4-12l10.4,1.2v24.4L34.6,67.6V43.1z M42.5,56.2l6.6-3.2v-8.4l-6.6,3.8V56.2z"/>
		<polygon fill="#EDBC4E" points="18.7,59.3 18.7,45.3 25.7,48.8 25.7,56.7 25.7,63 		"/>
	</g>
</g>
<g>
	<g>
		<polygon fill="#87C4BB" points="43.9,42 64.7,52.8 64.7,77.2 55.8,72.6 55.8,66.4 61.5,69.2 61.5,61.3 55.8,58.5 48.8,54.9 
			48.8,69 43.9,66.4 		"/>
		<path fill="#7AA5B8" d="M64.7,52.8l10.4-12L85.5,42v24.4L64.7,77.2V52.8z M72.7,65.8l6.6-3.2v-8.4L72.7,58V65.8z"/>
		<polygon fill="#E7537A" points="48.8,69 48.8,54.9 55.8,58.5 55.8,66.4 55.8,72.6 		"/>
		<path fill="#3E6460" d="M55.8,58.5l5.6,2.9v7.9l-5.6-2.9V58.5z M72.7,65.8V58l6.6-3.8v8.4L72.7,65.8z"/>
		<polygon fill="#ECCD3A" points="64.7,52.8 43.9,42 54.3,29.9 75.1,40.8 		"/>
		<polygon fill="#E6A333" points="75.1,40.8 54.3,29.9 64.7,31.1 85.5,42 		"/>
	</g>
</g>
</svg>
